<svg xmlns="http://www.w3.org/2000/svg" xmlns:xlink="http://www.w3.org/1999/xlink" viewBox="0 0 1238.09 1911.5"><defs><style>.cls-1,.cls-2,.cls-3,.cls-4,.cls-5{fill:none;stroke-miterlimit:10;stroke-width:133px;}.cls-1{stroke:url(#Degradado_sin_nombre_18);}.cls-2{stroke:url(#Degradado_sin_nombre_18-2);}.cls-3{stroke:url(#Degradado_sin_nombre_18-3);}.cls-4{stroke:url(#Degradado_sin_nombre_18-4);}.cls-5{stroke:url(#Degradado_sin_nombre_18-5);}.cls-6{font-size:39px;letter-spacing:0.05em;}.cls-25,.cls-42,.cls-6,.cls-68,.cls-86{fill:#0083e2;}.cls-25,.cls-42,.cls-6,.cls-68{font-family:Montserrat-Bold, Montserrat;font-weight:700;}.cls-7{letter-spacing:0.06em;}.cls-8{letter-spacing:0.06em;}.cls-9{letter-spacing:0.07em;}.cls-10{letter-spacing:0.06em;}.cls-11,.cls-18,.cls-22,.cls-26,.cls-28,.cls-33,.cls-36{font-size:26.23px;}.cls-11,.cls-18,.cls-22,.cls-26,.cls-28,.cls-33,.cls-36,.cls-49,.cls-57,.cls-64,.cls-73,.cls-74,.cls-75,.cls-76,.cls-77,.cls-78,.cls-79,.cls-80,.cls-81,.cls-82,.cls-83,.cls-84,.cls-85{font-family:Montserrat-Medium, Montserrat;font-weight:500;}.cls-11,.cls-21{letter-spacing:0.06em;}.cls-12,.cls-28{letter-spacing:0.06em;}.cls-13,.cls-26{letter-spacing:0.05em;}.cls-14,.cls-18{letter-spacing:0.06em;}.cls-15,.cls-22{letter-spacing:0.06em;}.cls-16{letter-spacing:0.05em;}.cls-17{letter-spacing:0.05em;}.cls-19{letter-spacing:0.05em;}.cls-20{letter-spacing:0.04em;}.cls-23{letter-spacing:0.06em;}.cls-24{letter-spacing:0.06em;}.cls-25{font-size:37.61px;letter-spacing:0.06em;}.cls-27,.cls-33{letter-spacing:0.05em;}.cls-29{letter-spacing:0.04em;}.cls-30{letter-spacing:0.05em;}.cls-31{letter-spacing:0.06em;}.cls-32{letter-spacing:0.06em;}.cls-34,.cls-36{letter-spacing:0.05em;}.cls-35{letter-spacing:0.05em;}.cls-37{letter-spacing:0.06em;}.cls-38{letter-spacing:0.06em;}.cls-39{letter-spacing:0.06em;}.cls-40{letter-spacing:0.05em;}.cls-41{letter-spacing:0.06em;}.cls-42,.cls-68{font-size:36.2px;}.cls-42,.cls-70{letter-spacing:0.06em;}.cls-43{letter-spacing:0.05em;}.cls-44{letter-spacing:0.04em;}.cls-45{letter-spacing:0.07em;}.cls-46{letter-spacing:0.04em;}.cls-47,.cls-68{letter-spacing:0.06em;}.cls-48{letter-spacing:0.08em;}.cls-49,.cls-57,.cls-64,.cls-73,.cls-74,.cls-75,.cls-76,.cls-77,.cls-78,.cls-79,.cls-80,.cls-81,.cls-82,.cls-83,.cls-84,.cls-85{font-size:25.25px;}.cls-49,.cls-60{letter-spacing:0.06em;}.cls-50,.cls-84{letter-spacing:0.05em;}.cls-51,.cls-57{letter-spacing:0.06em;}.cls-52,.cls-79{letter-spacing:0.04em;}.cls-53,.cls-77{letter-spacing:0.06em;}.cls-54,.cls-78{letter-spacing:0.06em;}.cls-55,.cls-76{letter-spacing:0.05em;}.cls-56,.cls-80{letter-spacing:0.06em;}.cls-58{letter-spacing:0.05em;}.cls-59{letter-spacing:0.04em;}.cls-61{letter-spacing:0.07em;}.cls-62{letter-spacing:0.05em;}.cls-63,.cls-82{letter-spacing:0.05em;}.cls-64{letter-spacing:0.05em;}.cls-65{letter-spacing:0.06em;}.cls-66,.cls-81{letter-spacing:0.05em;}.cls-67{letter-spacing:0.01em;}.cls-69{letter-spacing:0.07em;}.cls-71{letter-spacing:0.05em;}.cls-72{letter-spacing:0.07em;}.cls-73{letter-spacing:0.01em;}.cls-74{letter-spacing:0.06em;}.cls-75{letter-spacing:0.05em;}.cls-83{letter-spacing:0.05em;}.cls-85{letter-spacing:0.07em;}.cls-87{fill:#00e2ef;}</style><linearGradient id="Degradado_sin_nombre_18" x1="320.55" y1="1327.72" x2="905.07" y2="1327.72" gradientUnits="userSpaceOnUse"><stop offset="0" stop-color="#00e2ef"/><stop offset="0.88" stop-color="#0083e2"/></linearGradient><linearGradient id="Degradado_sin_nombre_18-2" x1="321.07" y1="975.07" x2="902.15" y2="975.07" xlink:href="#Degradado_sin_nombre_18"/><linearGradient id="Degradado_sin_nombre_18-3" x1="320.07" y1="649.19" x2="900.1" y2="649.19" xlink:href="#Degradado_sin_nombre_18"/><linearGradient id="Degradado_sin_nombre_18-4" x1="311.07" y1="295.04" x2="902.15" y2="295.04" xlink:href="#Degradado_sin_nombre_18"/><linearGradient id="Degradado_sin_nombre_18-5" x1="320.55" y1="1663.15" x2="902.07" y2="1663.15" xlink:href="#Degradado_sin_nombre_18"/></defs><g id="Capa_2" data-name="Capa 2"><g id="Capa_1-2" data-name="Capa 1"><path class="cls-1" d="M387.05,1240.87c0,40.77,30.88,89.56,69.06,89.7l293.89,1.1c46.18.17,88.51,33.52,88.57,82.83"/><path class="cls-2" d="M835.64,888.35c.54,50.88-37.94,86.12-85.61,86.12h-312c-28.18,0-50.5,58-50.5,88"/><path class="cls-3" d="M386.57,550.5c0,40.77,31.36,113.8,69.54,113.94L750,665.54c46.18.17,83.55,33,83.6,82.27"/><path class="cls-4" d="M835.64,196.27c.54,51-37.94,91.3-85.6,91.3h-312c-50.71,10.62-60.51,76.79-60.51,106.93"/><path class="cls-5" d="M835.57,1556.5c.53,50.88-37.87,92-85.54,92h-312c-28.18,0-51,24.39-51,54.47v67.53"/><text class="cls-6" transform="translate(90.9 56.02)">F<tspan class="cls-7" x="26.72" y="0">o</tspan><tspan class="cls-8" x="54.6" y="0">r</tspan><tspan class="cls-7" x="73.59" y="0">m</tspan><tspan class="cls-9" x="116.84" y="0">a</tspan><tspan class="cls-7" x="143.48" y="0">ción onli</tspan><tspan class="cls-9" x="338.83" y="0">n</tspan><tspan class="cls-10" x="368.35" y="0">e semanal</tspan><tspan class="cls-11"><tspan x="0" y="53.61">Emp</tspan><tspan class="cls-12" x="67.92" y="53.61">e</tspan><tspan x="85.41" y="53.61">za</tspan><tspan class="cls-13" x="117.92" y="53.61">r</tspan><tspan class="cls-14" x="129.93" y="53.61">e</tspan><tspan class="cls-15" x="147.56" y="53.61">m</tspan><tspan x="176.94" y="53.61">os por lo más </tspan><tspan class="cls-12" x="382.84" y="53.61">b</tspan><tspan x="402.17" y="53.61">ási</tspan><tspan class="cls-16" x="443.04" y="53.61">c</tspan><tspan class="cls-14" x="459.38" y="53.61">o e i</tspan><tspan class="cls-17" x="521.4" y="53.61">r</tspan><tspan x="533.41" y="53.61">e</tspan><tspan class="cls-15" x="551.04" y="53.61">m</tspan><tspan class="cls-14" x="580.42" y="53.61">os </tspan></tspan><tspan class="cls-18"><tspan x="0" y="88.02">desa</tspan><tspan class="cls-19" x="69.07" y="88.02">r</tspan><tspan class="cls-13" x="81.22" y="88.02">r</tspan><tspan x="93.23" y="88.02">olla</tspan><tspan class="cls-15" x="146.51" y="88.02">n</tspan><tspan x="166.02" y="88.02">do los </tspan><tspan class="cls-15" x="262.82" y="88.02">m</tspan><tspan x="292.2" y="88.02">ódulos que </tspan><tspan class="cls-20" x="464.76" y="88.02">t</tspan><tspan class="cls-21" x="476.72" y="88.02">e </tspan><tspan class="cls-15" x="502.98" y="88.02">h</tspan><tspan class="cls-21" x="522.5" y="88.02">e</tspan><tspan class="cls-15" x="540.12" y="88.02">m</tspan><tspan x="569.5" y="88.02">os </tspan></tspan><tspan class="cls-22"><tspan x="0" y="122.42">m</tspan><tspan class="cls-21" x="29.38" y="122.42">e</tspan><tspan x="47.01" y="122.42">n</tspan><tspan class="cls-14" x="66.53" y="122.42">cion</tspan><tspan class="cls-23" x="129.64" y="122.42">a</tspan><tspan class="cls-14" x="146.98" y="122.42">do a</tspan><tspan class="cls-19" x="210.57" y="122.42">rr</tspan><tspan class="cls-21" x="234.86" y="122.42">i</tspan><tspan class="cls-24" x="243.75" y="122.42">b</tspan><tspan class="cls-14" x="263.08" y="122.42">a.</tspan></tspan></text><text class="cls-25" transform="translate(71.2 785.22)">Resolución de dudas<tspan class="cls-26"><tspan x="0" y="53.61">P</tspan><tspan class="cls-14" x="20.2" y="53.61">od</tspan><tspan class="cls-16" x="57.9" y="53.61">r</tspan><tspan class="cls-14" x="70.01" y="53.61">ás e</tspan><tspan class="cls-27" x="128.25" y="53.61">n</tspan><tspan class="cls-14" x="147.43" y="53.61">viar tus dudas a nuest</tspan><tspan x="474.2" y="53.61">r</tspan><tspan class="cls-14" x="486.22" y="53.61">o equipo </tspan></tspan><tspan class="cls-28"><tspan x="0" y="88.02">p</tspan><tspan class="cls-14" x="19.33" y="88.02">a</tspan><tspan class="cls-16" x="36.59" y="88.02">r</tspan><tspan class="cls-14" x="48.71" y="88.02">a que las </tspan><tspan class="cls-13" x="189.16" y="88.02">r</tspan><tspan class="cls-14" x="201.18" y="88.02">esuel</tspan><tspan class="cls-29" x="279.37" y="88.02">v</tspan><tspan class="cls-14" x="295.17" y="88.02">an en la p</tspan><tspan class="cls-13" x="440.44" y="88.02">r</tspan><tspan class="cls-20" x="452.46" y="88.02">ó</tspan><tspan class="cls-14" x="470.22" y="88.02">xima </tspan><tspan class="cls-19" x="550.36" y="88.02">c</tspan><tspan class="cls-21" x="566.72" y="88.02">lase.</tspan></tspan></text><text class="cls-25" transform="translate(0.05 1472.35)">Plata<tspan class="cls-30" x="112.89" y="0">f</tspan><tspan x="129.44" y="0">o</tspan><tspan class="cls-31" x="156.33" y="0">r</tspan><tspan class="cls-32" x="174.64" y="0">ma de </tspan><tspan class="cls-31" x="321.87" y="0">c</tspan><tspan x="346.2" y="0">lases en di</tspan><tspan class="cls-30" x="577.56" y="0">f</tspan><tspan x="594.11" y="0">e</tspan><tspan class="cls-31" x="620.09" y="0">r</tspan><tspan x="638.41" y="0">ido</tspan><tspan class="cls-33"><tspan x="0" y="53.61">P</tspan><tspan class="cls-34" x="20.25" y="53.61">P</tspan><tspan class="cls-14" x="40.37" y="53.61">a</tspan><tspan class="cls-16" x="57.63" y="53.61">r</tspan><tspan class="cls-14" x="69.75" y="53.61">a que puedas </tspan><tspan class="cls-34" x="277.2" y="53.61">v</tspan><tspan class="cls-21" x="293.04" y="53.61">er las </tspan><tspan class="cls-35" x="381.13" y="53.61">c</tspan><tspan class="cls-21" x="397.5" y="53.61">lases emitidas tantas </tspan></tspan><tspan class="cls-36"><tspan x="0" y="88.02">v</tspan><tspan class="cls-21" x="15.84" y="88.02">e</tspan><tspan class="cls-16" x="33.47" y="88.02">c</tspan><tspan class="cls-14" x="49.82" y="88.02">es </tspan><tspan class="cls-16" x="90.79" y="88.02">c</tspan><tspan class="cls-14" x="107.13" y="88.02">o</tspan><tspan class="cls-37" x="125.37" y="88.02">m</tspan><tspan class="cls-14" x="154.75" y="88.02">o quie</tspan><tspan class="cls-16" x="246.93" y="88.02">r</tspan><tspan class="cls-14" x="259.05" y="88.02">as.</tspan></tspan></text><text class="cls-25" transform="translate(499.9 1803.17)">Plata<tspan class="cls-30" x="112.89" y="0">f</tspan><tspan x="129.44" y="0">o</tspan><tspan class="cls-31" x="156.33" y="0">r</tspan><tspan class="cls-38" x="174.64" y="0">ma de </tspan><tspan class="cls-39" x="321.87" y="0">c</tspan><tspan class="cls-32" x="346.2" y="0">lases en di</tspan><tspan class="cls-40" x="577.56" y="0">f</tspan><tspan class="cls-32" x="594.11" y="0">e</tspan><tspan class="cls-41" x="620.09" y="0">r</tspan><tspan class="cls-32" x="638.41" y="0">ido</tspan><tspan class="cls-33"><tspan x="0" y="53.61">P</tspan><tspan class="cls-34" x="20.25" y="53.61">P</tspan><tspan class="cls-14" x="40.37" y="53.61">a</tspan><tspan class="cls-16" x="57.63" y="53.61">r</tspan><tspan class="cls-14" x="69.75" y="53.61">a que puedas </tspan><tspan class="cls-34" x="277.2" y="53.61">v</tspan><tspan class="cls-14" x="293.04" y="53.61">er las </tspan><tspan class="cls-19" x="381.13" y="53.61">c</tspan><tspan class="cls-14" x="397.5" y="53.61">lases emitidas tantas </tspan></tspan><tspan class="cls-36"><tspan x="0" y="88.02">v</tspan><tspan class="cls-21" x="15.84" y="88.02">e</tspan><tspan class="cls-16" x="33.47" y="88.02">c</tspan><tspan class="cls-14" x="49.82" y="88.02">es </tspan><tspan class="cls-16" x="90.79" y="88.02">c</tspan><tspan class="cls-14" x="107.13" y="88.02">o</tspan><tspan class="cls-37" x="125.37" y="88.02">m</tspan><tspan class="cls-14" x="154.75" y="88.02">o quie</tspan><tspan class="cls-16" x="246.93" y="88.02">r</tspan><tspan class="cls-14" x="259.05" y="88.02">as.</tspan></tspan></text><text class="cls-42" transform="translate(519.48 1107.91)">Análisis de p<tspan class="cls-43" x="267.82" y="0">r</tspan><tspan class="cls-44" x="285.27" y="0">oy</tspan><tspan x="333.89" y="0">e</tspan><tspan class="cls-45" x="358.9" y="0">c</tspan><tspan class="cls-46" x="382.76" y="0">t</tspan><tspan class="cls-47" x="400.07" y="0">os c</tspan><tspan class="cls-48" x="483.33" y="0">r</tspan><tspan class="cls-47" x="501.65" y="0">yp</tspan><tspan class="cls-46" x="552.62" y="0">t</tspan><tspan x="569.92" y="0">os</tspan><tspan class="cls-49"><tspan x="0" y="42.36">Mu</tspan><tspan class="cls-50" x="44.24" y="42.36">c</tspan><tspan x="60" y="42.36">has c</tspan><tspan class="cls-50" x="133.74" y="42.36">r</tspan><tspan class="cls-51" x="145.43" y="42.36">ip</tspan><tspan class="cls-52" x="172.73" y="42.36">t</tspan><tspan class="cls-51" x="184.24" y="42.36">o</tspan><tspan class="cls-53" x="201.79" y="42.36">m</tspan><tspan class="cls-51" x="230.08" y="42.36">o</tspan><tspan class="cls-54" x="247.63" y="42.36">n</tspan><tspan x="266.42" y="42.36">edas están </tspan><tspan class="cls-55" x="427.96" y="42.36">r</tspan><tspan x="439.52" y="42.36">es</tspan><tspan class="cls-56" x="470.66" y="42.36">p</tspan><tspan class="cls-51" x="489.27" y="42.36">ald</tspan><tspan class="cls-54" x="533.18" y="42.36">a</tspan><tspan x="549.88" y="42.36">das por </tspan></tspan><tspan class="cls-57"><tspan x="0" y="75.49">p</tspan><tspan class="cls-58" x="18.74" y="75.49">r</tspan><tspan class="cls-59" x="30.3" y="75.49">oy</tspan><tspan class="cls-60" x="62.73" y="75.49">e</tspan><tspan class="cls-61" x="79.7" y="75.49">c</tspan><tspan class="cls-52" x="95.81" y="75.49">t</tspan><tspan x="107.32" y="75.49">os se</tspan><tspan class="cls-62" x="178.49" y="75.49">r</tspan><tspan class="cls-60" x="190.18" y="75.49">ios. Sin em</tspan><tspan class="cls-56" x="343.97" y="75.49">b</tspan><tspan x="362.58" y="75.49">a</tspan><tspan class="cls-55" x="379.19" y="75.49">r</tspan><tspan class="cls-60" x="390.76" y="75.49">g</tspan><tspan class="cls-58" x="409.7" y="75.49">o</tspan><tspan x="426.95" y="75.49">, </tspan><tspan class="cls-50" x="442.5" y="75.49">¿</tspan><tspan x="458.31" y="75.49">son </tspan><tspan class="cls-55" x="517.05" y="75.49">r</tspan><tspan class="cls-63" x="528.61" y="75.49">e</tspan><tspan class="cls-60" x="545.2" y="75.49">al</tspan><tspan class="cls-54" x="570.38" y="75.49">m</tspan><tspan class="cls-60" x="598.66" y="75.49">en</tspan><tspan class="cls-52" x="634.35" y="75.49">t</tspan><tspan class="cls-60" x="645.86" y="75.49">e </tspan></tspan><tspan class="cls-64"><tspan x="0" y="108.61">r</tspan><tspan class="cls-65" x="11.57" y="108.61">entables y sos</tspan><tspan class="cls-52" x="212.4" y="108.61">t</tspan><tspan class="cls-60" x="223.91" y="108.61">enibles en el </tspan><tspan class="cls-54" x="412.73" y="108.61">m</tspan><tspan class="cls-60" x="441.01" y="108.61">edio y la</tspan><tspan class="cls-55" x="560.25" y="108.61">r</tspan><tspan class="cls-60" x="571.82" y="108.61">go pla</tspan><tspan class="cls-66" x="660.53" y="108.61">z</tspan><tspan class="cls-67" x="675" y="108.61">o</tspan><tspan class="cls-51" x="691.37" y="108.61">?</tspan></tspan></text><text/><text class="cls-68" transform="translate(518.55 411.8)">Clase semanal de análisis <tspan x="0" y="40">de </tspan><tspan class="cls-69" x="64.66" y="40">m</tspan><tspan class="cls-70" x="105.02" y="40">e</tspan><tspan class="cls-71" x="130.04" y="40">r</tspan><tspan class="cls-70" x="147.49" y="40">c</tspan><tspan class="cls-72" x="171.05" y="40">a</tspan><tspan x="195.78" y="40">do en di</tspan><tspan class="cls-43" x="366.22" y="40">r</tspan><tspan x="383.67" y="40">e</tspan><tspan class="cls-45" x="408.68" y="40">c</tspan><tspan class="cls-46" x="432.54" y="40">t</tspan><tspan class="cls-70" x="449.84" y="40">o</tspan><tspan class="cls-73" x="0" y="91.61">T</tspan><tspan class="cls-74" x="14.95" y="91.61">e t</tspan><tspan class="cls-75" x="52.2" y="91.61">r</tspan><tspan class="cls-49" x="63.86" y="91.61">ansmiti</tspan><tspan class="cls-76" x="170.66" y="91.61">r</tspan><tspan class="cls-49" x="182.22" y="91.61">e</tspan><tspan class="cls-77" x="199.19" y="91.61">m</tspan><tspan class="cls-57" x="227.48" y="91.61">os una </tspan><tspan class="cls-78" x="329.75" y="91.61">m</tspan><tspan class="cls-49" x="358.03" y="91.61">e</tspan><tspan class="cls-79" x="375" y="91.61">t</tspan><tspan class="cls-57" x="386.52" y="91.61">odología de análisis </tspan><tspan class="cls-57" x="0" y="124.73">que fu</tspan><tspan class="cls-78" x="91.67" y="124.73">n</tspan><tspan class="cls-49" x="110.45" y="124.73">ciona </tspan><tspan class="cls-80" x="196.14" y="124.73">p</tspan><tspan class="cls-57" x="214.75" y="124.73">a</tspan><tspan class="cls-81" x="231.36" y="124.73">r</tspan><tspan class="cls-49" x="243.03" y="124.73">a que puedas </tspan><tspan class="cls-82" x="442.73" y="124.73">e</tspan><tspan class="cls-57" x="459.32" y="124.73">xt</tspan><tspan class="cls-75" x="486.74" y="124.73">r</tspan><tspan class="cls-77" x="498.41" y="124.73">a</tspan><tspan class="cls-57" x="515.1" y="124.73">er tus p</tspan><tspan class="cls-76" x="624.04" y="124.73">r</tspan><tspan class="cls-49" x="635.61" y="124.73">opias </tspan><tspan class="cls-83" x="0" y="157.85">c</tspan><tspan class="cls-74" x="15.73" y="157.85">o</tspan><tspan class="cls-78" x="33.28" y="157.85">n</tspan><tspan class="cls-84" x="52.07" y="157.85">c</tspan><tspan class="cls-49" x="67.83" y="157.85">lusio</tspan><tspan class="cls-78" x="135.28" y="157.85">n</tspan><tspan class="cls-49" x="154.07" y="157.85">es sob</tspan><tspan class="cls-76" x="243.97" y="157.85">r</tspan><tspan class="cls-49" x="255.53" y="157.85">e el est</tspan><tspan class="cls-78" x="357.75" y="157.85">a</tspan><tspan class="cls-49" x="374.45" y="157.85">do del </tspan><tspan class="cls-78" x="471.62" y="157.85">m</tspan><tspan class="cls-49" x="499.9" y="157.85">e</tspan><tspan class="cls-76" x="516.87" y="157.85">r</tspan><tspan class="cls-49" x="528.44" y="157.85">c</tspan><tspan class="cls-78" x="544.37" y="157.85">a</tspan><tspan class="cls-49" x="561.06" y="157.85">do c</tspan><tspan class="cls-85" x="621.59" y="157.85">r</tspan><tspan class="cls-57" x="633.84" y="157.85">yp</tspan><tspan class="cls-79" x="668.21" y="157.85">t</tspan><tspan class="cls-76" x="679.72" y="157.85">o</tspan><tspan class="cls-57" x="696.97" y="157.85">.</tspan></text><path class="cls-86" d="M856,110.56c4.57-1.79,8.4-.74,11.63,3.06a9.44,9.44,0,0,1,7.9-1.73,9,9,0,0,1,6,4.5c2.35-.32,4.47-1,6.5-.81a8.75,8.75,0,0,1,8,9c.06,12,.21,24.06-.22,36.07-.41,11.65-9.66,20-21.36,20-7,0-13.94,0-20.9-.2-6.73-.15-11.91-3.44-15.89-8.63a49.47,49.47,0,0,1-4.38-7.14q-6.32-12-12.44-24.09a26.89,26.89,0,0,1-2.18-5.44c-1.84-7.2,4-12.89,11.08-10.57,2.67.88,5,2.68,7.49,4V115.1A58.61,58.61,0,0,1,814.06,114,57.88,57.88,0,0,1,817.13,1.14c31.94-6.51,63.52,15.55,68.36,47.77,3.62,24.1-7.34,46.88-28.48,59.31-.65.38-1,1.23-1.54,1.86Zm-.18-7.62C875,92.26,888.08,65.27,877.51,38.39S836.17-1.92,809.42,8.54c-27.21,10.65-40.87,41-30.57,67.92,10.42,27.3,38.22,37.76,58.4,33.4v-1.92c0-5.42,0-10.84,0-16.26a9.34,9.34,0,0,1,9.46-9.53c5.14.06,9.06,4.24,9.07,9.69C855.8,95.51,855.79,99.18,855.79,102.94Zm-13.43,11.3h-.08c0,7.44,0,14.88,0,22.32,0,1.4-.39,2.49-1.83,2.89s-2.32-.41-3.05-1.56a37.21,37.21,0,0,0-2.44-3.51c-1.8-2.26-3.79-4.3-6.69-5.12-3.38-1-5.78,1.25-4.9,4.64a23.35,23.35,0,0,0,1.9,4.6c4.08,8,8.17,16,12.36,23.93a45,45,0,0,0,4.47,7.06,14.87,14.87,0,0,0,11.83,6q10.26.12,20.53.18A16.26,16.26,0,0,0,888,168.93c2.73-3.51,3-7.67,3.08-11.86.06-10.47,0-20.95,0-31.43A9.57,9.57,0,0,0,891,124a4.19,4.19,0,0,0-8.34.27c-.1,1,0,2,0,3,0,2-.84,3.05-2.42,3.08s-2.51-1-2.54-3c0-2.32,0-4.64,0-7a4.15,4.15,0,0,0-4.14-3.89,4,4,0,0,0-4.11,3.83c-.13,2.56-.09,5.12-.19,7.67-.06,1.71-1,2.72-2.5,2.63a2.33,2.33,0,0,1-2.38-2.57c0-2.8-.15-5.6-.08-8.39s-1.45-5-4-5.09-4.34,1.79-4.37,4.73c0,3.28,0,6.55,0,9.82,0,1.32-.51,2.51-1.89,2.61a2.68,2.68,0,0,1-3.05-3.34c0-11.91,0-23.81,0-35.72a9.8,9.8,0,0,0-.35-2.81,4.18,4.18,0,0,0-4.14-2.77,4.08,4.08,0,0,0-3.72,3.3,13.76,13.76,0,0,0-.19,2.31Q842.35,103.52,842.36,114.24Z"/><path class="cls-86" d="M813.48,58.74q0-10,0-20c0-3.6,1.62-4.54,4.71-2.76q17.38,10,34.74,20.08A4.74,4.74,0,0,1,855,58.28c.55,1.59-.7,2.44-2,3.16q-14.22,8.19-28.43,16.41c-2.31,1.34-4.62,2.7-7,4s-4.15.35-4.17-2.4C813.45,72.55,813.48,65.64,813.48,58.74Zm5-16.85V75.64l29.23-16.88Z"/><path class="cls-86" d="M846.61,74.58a16.77,16.77,0,0,1,16.73,15.93c.07,2.11-.73,3.29-2.29,3.37s-2.45-1-2.66-3.13c-.67-7-6-11.64-12.9-11.16A11.87,11.87,0,0,0,834.7,90.36a10.36,10.36,0,0,1-.07,1.25,2.45,2.45,0,0,1-2.55,2.26,2.41,2.41,0,0,1-2.36-2.6c.2-6.7,3.25-11.76,9.2-14.79,2.31-1.18,5-1.6,7.55-2.36Z"/><path class="cls-87" d="M369.9,414c2.29.32,4.6.56,6.87,1a52.12,52.12,0,0,1,31.61,18.47l.8.95a3.71,3.71,0,0,0,.4.27c1-1.07,2.1-2.15,3.1-3.3a1.23,1.23,0,0,0,.08-1.05c-1.93-4.66-.07-9.53,4.37-11.38a8.42,8.42,0,0,1,11.19,4.88,1.16,1.16,0,0,0,1.3.81c3.53,0,7.06,0,10.6,0h1.4v4.23h-1.44c-3.53,0-7.06,0-10.59,0a1.54,1.54,0,0,0-1.18.68c-2.19,5-6.91,6.86-12,4.57a1.85,1.85,0,0,0-.4-.09c-1.19,1.19-2.48,2.42-3.65,3.74-.22.24-.11,1,.11,1.34a52.74,52.74,0,0,1,5.6,12.36,51.73,51.73,0,0,1-2.78,37.83,53.71,53.71,0,0,1-2.79,5.1,1.3,1.3,0,0,0,.22,2q12.64,12.48,25.22,25c3.39,3.38,4.58,7.35,3.05,12-2.31,7-11.57,9.68-17.29,5-.73-.6-1.44-1.24-2.11-1.91q-12-11.9-24-23.8c-1.52-1.5-1.53-1.53-3.32-.45a51.72,51.72,0,0,1-17.12,6.48,53,53,0,0,1-27.49-2,52.46,52.46,0,0,1-22.27-14.88,51.4,51.4,0,0,1-12.18-24c-.44-2.05-.62-4.15-.93-6.23-.07-.44-.17-.88-.25-1.32v-6.44a7.83,7.83,0,0,0,.22-.93,49.77,49.77,0,0,1,6.43-21.51Q333,419.87,357.42,415c2.14-.42,4.33-.64,6.5-1Zm46.27,52.78a49,49,0,1,0-48,48.56A48.76,48.76,0,0,0,416.17,466.78Zm-7.43,50.87.75.8,15.59,15.47a14.22,14.22,0,0,0,1.29,1.16,6.85,6.85,0,0,0,10.31-2.21c1.49-2.87.93-5.86-1.66-8.43q-8.07-8.06-16.19-16.09a3.74,3.74,0,0,0-.39-.33ZM415,504.88l-5.16-5.13L400.38,509l5.19,5.18Zm5.48-74a4.23,4.23,0,0,0,4.2-4.18,4.34,4.34,0,0,0-4.32-4.23,4.24,4.24,0,0,0-4.16,4.22A4.15,4.15,0,0,0,420.48,430.88Z"/><path class="cls-87" d="M411.92,467a44.63,44.63,0,1,1-44.47-44.47A44.47,44.47,0,0,1,411.92,467Zm-63.68.81c-5.84,2.34-9.55.9-12.4-4.69-.11-.21-.38-.49-.59-.5-2.68,0-5.37,0-8,0a39.7,39.7,0,0,0,24,41,40.29,40.29,0,0,0,47.95-12.13c11.41-14.49,10.15-32.92,3.3-44-1.27,1.28-2.5,2.56-3.78,3.78a1.15,1.15,0,0,0-.28,1.59,8.29,8.29,0,0,1-1.72,9.36,8.43,8.43,0,0,1-9.44,1.68,1.16,1.16,0,0,0-1.57.3q-6.19,6.19-12.43,12.33a1.32,1.32,0,0,0-.29,1.8,7.85,7.85,0,0,1-1.09,8.39,8.43,8.43,0,0,1-14.39-8.58c.24-.54.33-.91-.17-1.4C354.26,473.81,351.28,470.82,348.24,467.8Zm52-24a40.25,40.25,0,0,0-43-15.8c-16.7,4.27-27.09,18.13-29.22,30.36,2.25,0,4.49,0,6.73,0a1.18,1.18,0,0,0,1.33-.92,8.45,8.45,0,0,1,11.17-4.73,8.35,8.35,0,0,1,4.4,11.15,1.22,1.22,0,0,0,.34,1.67c2.73,2.66,5.44,5.33,8.1,8a1.32,1.32,0,0,0,1.81.3,7.54,7.54,0,0,1,6.62,0,1.34,1.34,0,0,0,1.8-.37c4.09-4.1,8.21-8.17,12.32-12.26.26-.25.49-.54.74-.81h-.43c-.22-1.68-.78-3.4-.6-5,.64-5.95,6.38-9.12,11.94-6.79a1.37,1.37,0,0,0,1.16-.12C397,447,398.59,445.41,400.21,443.8Zm-56.39,12.5a4.15,4.15,0,0,0-4.15,4.19,4.22,4.22,0,0,0,4.27,4.23,4.33,4.33,0,0,0,4.2-4.23A4.25,4.25,0,0,0,343.82,456.3Zm21.26,29.51a4.21,4.21,0,1,0-4.17-4.32A4.21,4.21,0,0,0,365.08,485.81Zm25.54-33.73a4.23,4.23,0,0,0-4.22,4.16,4.34,4.34,0,0,0,4.29,4.26,4.24,4.24,0,0,0,4.18-4.33A4.14,4.14,0,0,0,390.62,452.08Z"/><path class="cls-86" d="M838.93,759c2.22.3,4.45.52,6.65.9a58.47,58.47,0,0,1,47.34,46.58,58.45,58.45,0,0,1-112.4,30.81A55.41,55.41,0,0,1,777.27,822c0-.37-.14-.73-.2-1.09V814c.07-.4.15-.8.2-1.21.28-2.11.45-4.24.84-6.32a58.44,58.44,0,0,1,47.33-46.59c2.2-.38,4.43-.6,6.64-.9Zm51.6,58.48a55,55,0,1,0-55,55A55,55,0,0,0,890.53,817.48Z"/><path class="cls-86" d="M827.71,825.55c.28-4.14,1-8.16,3.69-11.44a64.82,64.82,0,0,1,5-4.83,34,34,0,0,0,3.76-3.94,7.86,7.86,0,0,0,1.3-3.57c.38-3.29-1.17-5.46-4.44-6.07a14.75,14.75,0,0,0-5.3,0,8.92,8.92,0,0,0-3.28,1.87,11.24,11.24,0,0,0-1.48,1.72,5.34,5.34,0,0,1-6.88,1.4,5.74,5.74,0,0,1-3.14-6.35,11.36,11.36,0,0,1,5-7.19c4.47-3.17,9.54-4,14.87-3.56a20.79,20.79,0,0,1,11.13,3.9,15.81,15.81,0,0,1,5,18.9c-1.93,4.56-5.19,8-8.8,11.19-.49.43-1,.87-1.45,1.29a8.61,8.61,0,0,0-3.07,6.72c0,1.1,0,2.22-.11,3.31a4.52,4.52,0,0,1-4.26,4.3,13.41,13.41,0,0,1-3.29,0,4.52,4.52,0,0,1-4-4.09C827.81,827.9,827.8,826.72,827.71,825.55Zm6.76-38.7c-3.68.08-7.27.72-10.4,2.95a8.26,8.26,0,0,0-3.78,5.21,2.27,2.27,0,0,0,1.67,2.73,2,2,0,0,0,2.4-.77c1.78-2.35,3.86-4.38,6.95-4.75a23.67,23.67,0,0,1,5.32-.1c4.21.44,7.28,3.06,8.09,6.9a10.16,10.16,0,0,1-2.47,9.23,67.47,67.47,0,0,1-6,5.6c-4.58,3.95-5.36,9.11-4.88,14.71a1.33,1.33,0,0,0,1.58,1.27c1.09-.05,2.34.32,3.08-.89a2,2,0,0,0,.12-.89c0-.84,0-1.68,0-2.51a12,12,0,0,1,4-9.09q2.09-1.86,4.11-3.79a22.69,22.69,0,0,0,5.26-7.23,12.41,12.41,0,0,0-6.12-16.72A21.4,21.4,0,0,0,834.47,786.85Z"/><path class="cls-86" d="M835.59,865c-17.55-.67-31.16-8.09-40.57-22.81a45.52,45.52,0,0,1-6.75-20c-.14-1.4.31-2.21,1.34-2.41s1.79.59,2.09,2a88,88,0,0,0,2.45,10.62,42.2,42.2,0,0,0,15.29,20.53A42.63,42.63,0,0,0,827,860.65a44,44,0,0,0,45.77-19.79,42.33,42.33,0,0,0,6.31-17.42c.1-.72.16-1.44.3-2.15a1.74,1.74,0,0,1,1.91-1.55,1.62,1.62,0,0,1,1.43,2,75,75,0,0,1-1.62,8.73,46.46,46.46,0,0,1-16.74,24.65,45.87,45.87,0,0,1-22.58,9.35C839.7,864.72,837.57,864.83,835.59,865Z"/><path class="cls-86" d="M835.43,769.89c17.56.66,31.16,8.1,40.58,22.82a45.59,45.59,0,0,1,6.74,20c.14,1.39-.32,2.2-1.35,2.4s-1.9-.56-2-1.92a45.64,45.64,0,0,0-2.43-10.75,43.69,43.69,0,0,0-15.17-20.37A42.7,42.7,0,0,0,844,774.23,44,44,0,0,0,798.21,794a42.56,42.56,0,0,0-6.3,17.31c-.08.64-.15,1.29-.25,1.93-.18,1.21-.95,2-1.92,1.83a1.76,1.76,0,0,1-1.48-2.18,47.27,47.27,0,0,1,18.2-33,46.25,46.25,0,0,1,22.76-9.49C831.32,770.16,833.45,770.06,835.43,769.89Z"/><path class="cls-86" d="M826.07,843.79a7.62,7.62,0,0,1,7.5-7.62,7.64,7.64,0,1,1,0,15.27A7.62,7.62,0,0,1,826.07,843.79Zm11.72,0a4.28,4.28,0,0,0-4.21-4.22,4.21,4.21,0,0,0,0,8.42A4.3,4.3,0,0,0,837.79,843.82Z"/><path class="cls-87" d="M429.29,1153.85a2.44,2.44,0,0,1-1.67,2.51q-19.37,9.72-38.69,19.49a3.13,3.13,0,0,1-3.12,0q-19.19-9.71-38.4-19.37c-2.11-1.06-2.44-2.14-1.31-4.26l39-73.16c.53-1,1.07-2,2.41-2s1.87,1,2.4,2q19.38,36.39,38.76,72.77A12.67,12.67,0,0,1,429.29,1153.85Zm-76.73-4.27c.62-.23.85-.3,1.06-.39q15.31-6.64,30.63-13.25c.94-.4,1.06-1,1.05-1.86q0-22.14,0-44.27c0-.36-.06-.72-.13-1.52Zm37.42-60.9-.33.12q0,22.88,0,45.76c0,1,.6,1.13,1.25,1.41l26.47,11.47,5.06,2.19Zm-.25,82,32.39-16.4-32.39-14Zm-4.51-30.36-32.38,14,32.38,16.37Z"/><path class="cls-87" d="M429.67,1168.35a15.45,15.45,0,0,1-.84,1.68q-19.63,28.79-39.31,57.56c-1.28,1.88-3,1.85-4.31,0q-19.5-28.71-39-57.41c-.74-1.08-1.19-2.17-.22-3.28s2.09-.83,3.27-.22c12.18,6.35,24.39,12.66,36.56,19a3.12,3.12,0,0,0,3.3,0c12.11-6.36,24.27-12.65,36.41-19,1.14-.6,2.26-1,3.29.06A6.51,6.51,0,0,1,429.67,1168.35ZM355,1174.58l-.21.2,30.42,44.83c.08-.6.13-.78.13-1,0-9.13,0-18.27,0-27.4a2.05,2.05,0,0,0-1-1.42c-2.94-1.61-5.94-3.13-8.92-4.68Zm34.7,44.58.36.12L420.08,1175a2.21,2.21,0,0,0-1.36.29q-13.89,7.2-27.78,14.37a2.1,2.1,0,0,0-1.32,2.2c.05,8.68,0,17.37,0,26.06Z"/><path class="cls-86" d="M841,1463.19c17.54,0,35.09.06,52.64,0,3.83,0,6,2.51,6,6.07-.09,23.07-.05,46.14-.05,69.21,0,4-1.93,6-5.91,6H788.13c-4,0-5.92-2-5.92-6V1469.1q0-5.91,5.86-5.91Zm0,77.42h52.63c1.94,0,2.22-.27,2.22-2.15v-69.31c0-1.91-.27-2.17-2.2-2.17H788.21c-1.94,0-2.21.26-2.21,2.15v69.31c0,1.91.27,2.18,2.19,2.18Z"/><path class="cls-86" d="M810.73,1427h22.71c3.74,0,5.76,2,5.76,5.79q0,10.31,0,20.59c0,3.74-2.06,5.8-5.76,5.8H787.89c-3.59,0-5.67-2.07-5.68-5.63v-20.94c0-3.52,2.07-5.6,5.57-5.61Zm.07,3.8H788.1c-1.78,0-2.1.31-2.1,2v20.57c0,1.63.37,2,2,2h45.4c1.6,0,2-.4,2-2V1432.9c0-1.78-.34-2.1-2.16-2.1Z"/><path class="cls-86" d="M871.25,1427H894c3.52,0,5.6,2.07,5.6,5.57q0,10.53,0,21.06a5.14,5.14,0,0,1-5.53,5.54H848.26a5.13,5.13,0,0,1-5.48-5.47q0-10.65,0-21.29a5.09,5.09,0,0,1,5.41-5.41Zm-.08,3.79H848.58c-1.67,0-2,.34-2,2q0,10.31,0,20.59c0,1.64.37,2,2,2h45.19c1.63,0,2-.38,2-2v-20.59c0-1.65-.35-2-2-2Z"/><path class="cls-86" d="M828.27,1503.76c0-3.19,0-6.38,0-9.57,0-4.07,3.21-6,6.86-4.22,6.45,3.2,12.88,6.45,19.32,9.65a4.45,4.45,0,0,1,2.83,4.13,4.39,4.39,0,0,1-2.76,4.17c-6.55,3.27-13.09,6.56-19.65,9.8-3.3,1.63-6.51-.36-6.6-4a1.92,1.92,0,0,1,0-.24Zm3.77,0c0,3.19,0,6.38,0,9.58,0,1.26.28,1.43,1.4.87q9.57-4.77,19.11-9.57a4.36,4.36,0,0,0,.91-.82,4.52,4.52,0,0,0-1-.91q-9.49-4.79-19-9.51c-1.2-.6-1.46-.44-1.46.9C832,1497.45,832,1500.6,832,1503.76Z"/><path class="cls-87" d="M330.07,1831.69a1.79,1.79,0,0,0,.2-.42,9,9,0,0,1,6.4-6.83l80-26.15q14.54-4.76,29.07-9.5c3.42-1.11,6.67.67,7.22,4a7.47,7.47,0,0,1-.38,3.4q-11.89,36.55-23.86,73.09c-3.7,11.32-7.5,22.62-11.06,34-1.3,4.16-3.46,7.13-7.82,8.18H407c-2.76-.64-4.77-2.4-6.7-4.37-4.88-5-9.83-9.88-14.77-14.79a8.88,8.88,0,0,0-9.69-2.31L364,1893.9c-4.6,1.5-9.2,3-13.8,4.49a5.35,5.35,0,0,1-6.31-1.87,5.45,5.45,0,0,1-.66-5.24c2.76-8.39,5.47-16.8,8.24-25.19a9.29,9.29,0,0,0-2.46-10.31c-4.87-4.81-9.65-9.71-14.54-14.5-2-1.93-3.75-3.93-4.38-6.7Zm87.91-4.94c1.77-2,3.54-3.92,5.3-5.9.94-1,1-2,.25-2.76s-1.75-.74-2.85.23l-.09.08-18.94,17c-1.25,1.13-2.48,2.27-3.77,3.35a1.76,1.76,0,0,1-2.49-.15,1.81,1.81,0,0,1,.1-2.49,4.27,4.27,0,0,1,.44-.41l12.15-10.94c3.54-3.19,7.06-6.41,10.64-9.55a5.28,5.28,0,0,1,7.3.21,5.35,5.35,0,0,1,.37,7.31c-.48.59-1,1.14-1.52,1.71L380.32,1874c-2.41,2.68-2.39,5.66.06,8.12q12,12,24,24c3.24,3.23,7.91,2.12,9.34-2.24q17.79-54.39,35.56-108.79a2.15,2.15,0,0,0-.27-2.46c-.75-.74-1.59-.52-2.46-.23l-108.44,35.45c-4.84,1.58-5.91,6.1-2.31,9.7l23.28,23.29c3,3,5.69,3,8.82.23l21.62-19.45c1.46-1.32,2.45-1.46,3.29-.48s.56,1.86-.87,3.15l-17.6,15.83a9.9,9.9,0,0,1-1.11.76c4.4,1.48,5.75,2.82,7.55,7.38.21-.28.37-.5.55-.71m-34.39,24.23,26.84-26.85a4.68,4.68,0,0,0-3.93-.06c-.93.36-1.85.76-2.79,1.11a8.86,8.86,0,0,1-9.94-2,7.47,7.47,0,0,1-1-1.47C353.43,1872.69,349.76,1882.15,346.92,1891.71Zm29.8-23.87-26.87,26.86,1.36-.43c9.17-2.87,18.2-6.21,27.48-8.74-.21-.22-.53-.56-.86-.89a9,9,0,0,1-2.08-10.37c.35-.89.75-1.76,1.08-2.66A4.6,4.6,0,0,0,376.72,1867.84Z"/></g></g></svg>