<svg xmlns="http://www.w3.org/2000/svg" xmlns:xlink="http://www.w3.org/1999/xlink" viewBox="0 0 594 1911.5"><defs><style>.cls-1,.cls-2,.cls-3,.cls-4,.cls-5{fill:none;stroke-miterlimit:10;stroke-width:133px;}.cls-1{stroke:url(#Degradado_sin_nombre_18);}.cls-2{stroke:url(#Degradado_sin_nombre_18-2);}.cls-3{stroke:url(#Degradado_sin_nombre_18-3);}.cls-4{stroke:url(#Degradado_sin_nombre_18-4);}.cls-5{stroke:url(#Degradado_sin_nombre_18-5);}.cls-6{fill:#0083e2;}.cls-7{fill:#00e2ef;}</style><linearGradient id="Degradado_sin_nombre_18" x1="9.48" y1="1327.72" x2="594" y2="1327.72" gradientUnits="userSpaceOnUse"><stop offset="0" stop-color="#00e2ef"/><stop offset="0.88" stop-color="#0083e2"/></linearGradient><linearGradient id="Degradado_sin_nombre_18-2" x1="10" y1="975.07" x2="591.08" y2="975.07" xlink:href="#Degradado_sin_nombre_18"/><linearGradient id="Degradado_sin_nombre_18-3" x1="9" y1="649.19" x2="589.04" y2="649.19" xlink:href="#Degradado_sin_nombre_18"/><linearGradient id="Degradado_sin_nombre_18-4" x1="0" y1="295.04" x2="591.08" y2="295.04" xlink:href="#Degradado_sin_nombre_18"/><linearGradient id="Degradado_sin_nombre_18-5" x1="9.48" y1="1663.15" x2="591.01" y2="1663.15" xlink:href="#Degradado_sin_nombre_18"/></defs><g id="Capa_2" data-name="Capa 2"><g id="Capa_1-2" data-name="Capa 1"><path class="cls-1" d="M76,1240.87c0,40.77,30.88,89.56,69.06,89.7l293.9,1.1c46.18.17,88.5,33.52,88.56,82.83"/><path class="cls-2" d="M524.58,888.35c.53,50.88-38,86.12-85.61,86.12H127c-28.17,0-50.5,58-50.5,88"/><path class="cls-3" d="M75.5,550.5c0,40.77,31.36,113.8,69.54,113.94l293.9,1.1c46.18.17,83.54,33,83.6,82.27"/><path class="cls-4" d="M524.58,196.27c.53,51-38,91.3-85.61,91.3H127C76.3,298.19,66.5,364.36,66.5,394.5"/><path class="cls-5" d="M524.5,1556.5c.54,50.88-37.87,92-85.53,92H127c-28.17,0-51,24.39-51,54.47v67.53"/><path class="cls-6" d="M544.91,110.56c4.56-1.79,8.39-.74,11.62,3.06a9.45,9.45,0,0,1,7.91-1.73,9,9,0,0,1,6,4.5c2.35-.32,4.47-1,6.5-.81a8.75,8.75,0,0,1,8,9c.07,12,.22,24.06-.21,36.07-.42,11.65-9.67,20-21.37,20-7,0-13.93,0-20.89-.2-6.74-.15-11.91-3.44-15.9-8.63a49.47,49.47,0,0,1-4.38-7.14q-6.31-12-12.44-24.09a26.85,26.85,0,0,1-2.17-5.44c-1.85-7.2,4-12.89,11.08-10.57,2.67.88,5,2.68,7.49,4V115.1A58.66,58.66,0,0,1,503,114,57.88,57.88,0,0,1,506.06,1.14C538-5.37,569.59,16.69,574.42,48.91c3.62,24.1-7.33,46.88-28.48,59.31-.65.38-1,1.23-1.54,1.86Zm-.19-7.62C564,92.26,577,65.27,566.45,38.39S525.1-1.92,498.35,8.54c-27.21,10.65-40.86,41-30.57,67.92,10.43,27.3,38.22,37.76,58.4,33.4v-1.92c0-5.42,0-10.84,0-16.26a9.34,9.34,0,0,1,9.47-9.53c5.13.06,9.05,4.24,9.06,9.69C544.73,95.51,544.72,99.18,544.72,102.94Zm-13.43,11.3h-.08c0,7.44,0,14.88,0,22.32,0,1.4-.39,2.49-1.83,2.89s-2.32-.41-3-1.56a37.31,37.31,0,0,0-2.45-3.51c-1.79-2.26-3.78-4.3-6.68-5.12-3.38-1-5.79,1.25-4.9,4.64a22.72,22.72,0,0,0,1.89,4.6c4.09,8,8.18,16,12.37,23.93a45.68,45.68,0,0,0,4.46,7.06,14.88,14.88,0,0,0,11.83,6q10.27.12,20.53.18a16.26,16.26,0,0,0,13.51-6.77c2.74-3.51,3.06-7.67,3.08-11.86.07-10.47,0-20.95,0-31.43a9.55,9.55,0,0,0-.1-1.6,4.2,4.2,0,0,0-8.35.27c-.09,1,0,2,0,3,0,2-.85,3.05-2.42,3.08s-2.51-1-2.55-3c0-2.32.06-4.64,0-7a4.14,4.14,0,0,0-4.13-3.89,4,4,0,0,0-4.11,3.83c-.14,2.56-.1,5.12-.19,7.67-.07,1.71-1.05,2.72-2.51,2.63a2.33,2.33,0,0,1-2.37-2.57c-.06-2.8-.16-5.6-.09-8.39s-1.45-5-4-5.09-4.34,1.79-4.37,4.73c0,3.28,0,6.55,0,9.82,0,1.32-.52,2.51-1.9,2.61a2.68,2.68,0,0,1-3-3.34c0-11.91,0-23.81,0-35.72a9.81,9.81,0,0,0-.36-2.81,4.17,4.17,0,0,0-4.14-2.77,4.09,4.09,0,0,0-3.72,3.3,12.78,12.78,0,0,0-.18,2.31Q531.29,103.52,531.29,114.24Z"/><path class="cls-6" d="M502.42,58.74q0-10,0-20c0-3.6,1.61-4.54,4.7-2.76q17.39,10,34.75,20.08A4.84,4.84,0,0,1,544,58.28c.55,1.59-.71,2.44-2,3.16q-14.22,8.19-28.42,16.41c-2.32,1.34-4.62,2.7-7,4s-4.16.35-4.18-2.4C502.39,72.55,502.42,65.64,502.42,58.74Zm5-16.85V75.64L536.7,58.76Z"/><path class="cls-6" d="M535.54,74.58a16.77,16.77,0,0,1,16.73,15.93c.07,2.11-.72,3.29-2.29,3.37s-2.45-1-2.65-3.13c-.68-7-6-11.64-12.9-11.16a11.85,11.85,0,0,0-10.79,10.77c0,.42,0,.84-.08,1.25A2.44,2.44,0,0,1,521,93.87a2.4,2.4,0,0,1-2.36-2.6c.19-6.7,3.25-11.76,9.19-14.79,2.32-1.18,5-1.6,7.55-2.36Z"/><path class="cls-7" d="M58.83,414c2.3.32,4.6.56,6.88,1a52.09,52.09,0,0,1,31.6,18.47l.81.95a3.08,3.08,0,0,0,.39.27c1-1.07,2.1-2.15,3.1-3.3a1.23,1.23,0,0,0,.08-1.05c-1.93-4.66-.07-9.53,4.37-11.38a8.43,8.43,0,0,1,11.2,4.88,1.15,1.15,0,0,0,1.3.81c3.53,0,7.06,0,10.59,0h1.4v4.23h-1.44c-3.53,0-7.06,0-10.59,0a1.54,1.54,0,0,0-1.18.68c-2.19,5-6.91,6.86-12,4.57A2,2,0,0,0,105,434c-1.18,1.19-2.47,2.42-3.65,3.74a1.51,1.51,0,0,0,.11,1.34,52.74,52.74,0,0,1,5.6,12.36,51.73,51.73,0,0,1-2.77,37.83,53.8,53.8,0,0,1-2.8,5.1,1.31,1.31,0,0,0,.23,2q12.63,12.48,25.21,25c3.39,3.38,4.58,7.35,3.05,12-2.3,7-11.56,9.68-17.28,5-.74-.6-1.44-1.24-2.12-1.91l-24-23.8c-1.51-1.5-1.53-1.53-3.32-.45a51.63,51.63,0,0,1-17.12,6.48,53,53,0,0,1-27.48-2,52.4,52.4,0,0,1-22.27-14.88,51.33,51.33,0,0,1-12.19-24c-.43-2.05-.62-4.15-.93-6.23-.06-.44-.16-.88-.25-1.32v-6.44a5.22,5.22,0,0,0,.22-.93,50,50,0,0,1,6.43-21.51C17.83,427,30.1,418.21,46.35,415c2.15-.42,4.33-.64,6.5-1Zm46.28,52.78a49,49,0,1,0-48,48.56A48.76,48.76,0,0,0,105.11,466.78Zm-7.44,50.87c.2.21.47.51.76.8q7.78,7.74,15.58,15.47a15.71,15.71,0,0,0,1.29,1.16,6.86,6.86,0,0,0,10.32-2.21c1.48-2.87.92-5.86-1.66-8.43q-8.08-8.06-16.2-16.09a4,4,0,0,0-.38-.33Zm6.26-12.77-5.16-5.13L89.31,509l5.2,5.18Zm5.48-74a4.22,4.22,0,0,0,4.2-4.18,4.33,4.33,0,0,0-4.31-4.23,4.23,4.23,0,0,0-4.16,4.22A4.15,4.15,0,0,0,109.41,430.88Z"/><path class="cls-7" d="M100.85,467a44.63,44.63,0,0,1-89.26-.38,44.23,44.23,0,0,1,44.8-44.09A44.42,44.42,0,0,1,100.85,467Zm-63.67.81c-5.84,2.34-9.55.9-12.41-4.69-.11-.21-.38-.49-.58-.5-2.69,0-5.37,0-8,0a39.7,39.7,0,0,0,24,41,40.28,40.28,0,0,0,48-12.13c11.41-14.49,10.16-32.92,3.3-44-1.27,1.28-2.49,2.56-3.78,3.78a1.17,1.17,0,0,0-.28,1.59,8.27,8.27,0,0,1-1.72,9.36,8.41,8.41,0,0,1-9.43,1.68,1.17,1.17,0,0,0-1.58.3q-6.18,6.19-12.43,12.33a1.34,1.34,0,0,0-.29,1.8,7.85,7.85,0,0,1-1.09,8.39,8.43,8.43,0,0,1-14.39-8.58c.24-.54.33-.91-.16-1.4C43.19,473.81,40.21,470.82,37.18,467.8Zm52-24a40.25,40.25,0,0,0-43-15.8C29.43,432.27,19,446.13,16.9,458.36c2.26,0,4.49,0,6.73,0a1.18,1.18,0,0,0,1.33-.92,8.46,8.46,0,0,1,11.18-4.73,8.35,8.35,0,0,1,4.39,11.15,1.22,1.22,0,0,0,.35,1.67c2.72,2.66,5.43,5.33,8.09,8a1.33,1.33,0,0,0,1.82.3,7.52,7.52,0,0,1,6.61,0,1.33,1.33,0,0,0,1.8-.37c4.09-4.1,8.22-8.17,12.33-12.26.25-.25.49-.54.73-.81h-.43c-.22-1.68-.78-3.4-.6-5,.64-5.95,6.38-9.12,12-6.79a1.35,1.35,0,0,0,1.15-.12C86,447,87.52,445.41,89.14,443.8ZM32.76,456.3a4.16,4.16,0,0,0-4.16,4.19,4.23,4.23,0,0,0,4.28,4.23,4.32,4.32,0,0,0,4.19-4.23A4.25,4.25,0,0,0,32.76,456.3ZM54,485.81a4.21,4.21,0,1,0-4.17-4.32A4.24,4.24,0,0,0,54,485.81Zm25.53-33.73a4.24,4.24,0,0,0-4.22,4.16,4.34,4.34,0,0,0,4.29,4.26,4.23,4.23,0,0,0,4.18-4.33A4.14,4.14,0,0,0,79.55,452.08Z"/><path class="cls-6" d="M527.87,759c2.21.3,4.44.52,6.64.9a58.5,58.5,0,0,1,47.35,46.58,58.46,58.46,0,0,1-112.41,30.81A55.41,55.41,0,0,1,466.2,822a10,10,0,0,0-.2-1.09V814c.07-.4.15-.8.21-1.21.28-2.11.44-4.24.84-6.32a58.44,58.44,0,0,1,47.32-46.59c2.2-.38,4.43-.6,6.65-.9Zm51.59,58.48a55,55,0,1,0-55,55A55,55,0,0,0,579.46,817.48Z"/><path class="cls-6" d="M516.64,825.55c.29-4.14,1-8.16,3.69-11.44a63.18,63.18,0,0,1,5-4.83,33.94,33.94,0,0,0,3.75-3.94,7.75,7.75,0,0,0,1.3-3.57c.38-3.29-1.16-5.46-4.44-6.07a14.7,14.7,0,0,0-5.29,0,8.84,8.84,0,0,0-3.28,1.87,10.77,10.77,0,0,0-1.49,1.72,5.34,5.34,0,0,1-6.88,1.4,5.72,5.72,0,0,1-3.13-6.35,11.31,11.31,0,0,1,5-7.19c4.48-3.17,9.54-4,14.87-3.56a20.85,20.85,0,0,1,11.14,3.9,15.8,15.8,0,0,1,5,18.9c-1.92,4.56-5.18,8-8.8,11.19-.48.43-1,.87-1.45,1.29a8.57,8.57,0,0,0-3.06,6.72c0,1.1,0,2.22-.12,3.31a4.51,4.51,0,0,1-4.25,4.3,13.5,13.5,0,0,1-3.3,0,4.51,4.51,0,0,1-4-4.09C516.75,827.9,516.73,826.72,516.64,825.55Zm6.76-38.7c-3.68.08-7.27.72-10.4,2.95a8.25,8.25,0,0,0-3.77,5.21,2.27,2.27,0,0,0,1.66,2.73,2,2,0,0,0,2.4-.77c1.79-2.35,3.86-4.38,7-4.75a23.76,23.76,0,0,1,5.33-.1c4.2.44,7.28,3.06,8.09,6.9a10.16,10.16,0,0,1-2.48,9.23,68.76,68.76,0,0,1-6,5.6c-4.58,3.95-5.36,9.11-4.89,14.71a1.33,1.33,0,0,0,1.58,1.27c1.1-.05,2.35.32,3.08-.89a1.74,1.74,0,0,0,.12-.89c0-.84,0-1.68,0-2.51a12,12,0,0,1,4.05-9.09q2.09-1.86,4.11-3.79a22.82,22.82,0,0,0,5.25-7.23,12.4,12.4,0,0,0-6.12-16.72A21.37,21.37,0,0,0,523.4,786.85Z"/><path class="cls-6" d="M524.52,865c-17.55-.67-31.15-8.09-40.57-22.81a45.38,45.38,0,0,1-6.74-20c-.15-1.4.3-2.21,1.33-2.41s1.79.59,2.09,2a90,90,0,0,0,2.46,10.62,42.14,42.14,0,0,0,15.29,20.53A42.59,42.59,0,0,0,516,860.65a44,44,0,0,0,45.77-19.79,42.48,42.48,0,0,0,6.32-17.42c.09-.72.15-1.44.29-2.15a1.74,1.74,0,0,1,1.92-1.55,1.63,1.63,0,0,1,1.43,2,75,75,0,0,1-1.63,8.73,46.46,46.46,0,0,1-16.74,24.65,45.83,45.83,0,0,1-22.58,9.35C528.63,864.72,526.5,864.83,524.52,865Z"/><path class="cls-6" d="M524.37,769.89c17.55.66,31.16,8.1,40.57,22.82a45.33,45.33,0,0,1,6.74,20c.15,1.39-.32,2.2-1.35,2.4s-1.89-.56-2-1.92a46.14,46.14,0,0,0-2.43-10.75,43.82,43.82,0,0,0-15.17-20.37,42.8,42.8,0,0,0-17.78-7.86A44.06,44.06,0,0,0,487.14,794a42.4,42.4,0,0,0-6.29,17.31c-.09.64-.16,1.29-.25,1.93-.18,1.21-1,2-1.92,1.83a1.77,1.77,0,0,1-1.49-2.18,47.39,47.39,0,0,1,18.2-33,46.29,46.29,0,0,1,22.76-9.49C520.26,770.16,522.39,770.06,524.37,769.89Z"/><path class="cls-6" d="M515,843.79a7.61,7.61,0,0,1,7.49-7.62,7.64,7.64,0,1,1,0,15.27A7.62,7.62,0,0,1,515,843.79Zm11.72,0a4.29,4.29,0,0,0-4.21-4.22,4.21,4.21,0,0,0,0,8.42A4.31,4.31,0,0,0,526.73,843.82Z"/><path class="cls-7" d="M118.22,1153.85a2.43,2.43,0,0,1-1.67,2.51q-19.35,9.72-38.68,19.49a3.15,3.15,0,0,1-3.13,0q-19.18-9.71-38.4-19.37c-2.11-1.06-2.44-2.14-1.31-4.26q19.49-36.59,39-73.16c.54-1,1.07-2,2.41-2s1.87,1,2.4,2q19.38,36.39,38.76,72.77A11.76,11.76,0,0,1,118.22,1153.85Zm-76.72-4.27c.61-.23.84-.3,1-.39q15.31-6.64,30.63-13.25c.95-.4,1.06-1,1.06-1.86q0-22.14,0-44.27c0-.36,0-.72-.12-1.52C63.16,1108.85,52.43,1129,41.5,1149.58Zm37.42-60.9-.34.12q0,22.88,0,45.76c0,1,.6,1.13,1.25,1.41l26.48,11.47,5,2.19Zm-.26,82,32.39-16.4-32.39-14Zm-4.51-30.36-32.37,14,32.37,16.37Z"/><path class="cls-7" d="M118.6,1168.35a13.85,13.85,0,0,1-.83,1.68q-19.65,28.79-39.31,57.56c-1.29,1.88-3,1.85-4.31,0q-19.52-28.71-39-57.41c-.73-1.08-1.18-2.17-.21-3.28s2.09-.83,3.26-.22c12.19,6.35,24.39,12.66,36.56,19a3.12,3.12,0,0,0,3.3,0c12.12-6.36,24.28-12.65,36.42-19,1.13-.6,2.25-1,3.29.06A6.86,6.86,0,0,1,118.6,1168.35Zm-74.72,6.23-.21.2c10.07,14.83,20.13,29.67,30.42,44.83.08-.6.13-.78.13-1,0-9.13,0-18.27,0-27.4a2,2,0,0,0-1-1.42c-2.94-1.61-5.93-3.13-8.92-4.68Zm34.7,44.58.36.12Q94,1197.13,109,1175a2.21,2.21,0,0,0-1.36.29q-13.89,7.2-27.78,14.37a2.12,2.12,0,0,0-1.32,2.2c0,8.68,0,17.37,0,26.06Z"/><path class="cls-6" d="M529.88,1463.19c17.55,0,35.1.06,52.64,0,3.83,0,6,2.51,6,6.07-.09,23.07,0,46.14,0,69.21,0,4-1.94,6-5.92,6H477.06c-4,0-5.91-2-5.91-6V1469.1c0-3.94,1.94-5.91,5.85-5.91Zm0,77.42H582.5c1.93,0,2.21-.27,2.21-2.15v-69.31c0-1.91-.27-2.17-2.2-2.17H477.14c-1.94,0-2.21.26-2.21,2.15v69.31c0,1.91.28,2.18,2.19,2.18Z"/><path class="cls-6" d="M499.67,1427h22.71c3.73,0,5.75,2,5.76,5.79q0,10.31,0,20.59c0,3.74-2,5.8-5.76,5.8H476.83c-3.59,0-5.68-2.07-5.68-5.63q0-10.47,0-20.94c0-3.52,2.06-5.6,5.57-5.61Zm.06,3.8H477c-1.78,0-2.1.31-2.1,2v20.57c0,1.63.38,2,2,2h45.39c1.6,0,2-.4,2-2V1432.9c0-1.78-.33-2.1-2.16-2.1Z"/><path class="cls-6" d="M560.19,1427H582.9c3.51,0,5.59,2.07,5.6,5.57q0,10.53,0,21.06a5.13,5.13,0,0,1-5.52,5.54H537.19a5.12,5.12,0,0,1-5.47-5.47q0-10.65,0-21.29a5.09,5.09,0,0,1,5.41-5.41Zm-.09,3.79H537.51c-1.67,0-2,.34-2,2v20.59c0,1.64.38,2,2,2H582.7c1.63,0,2-.38,2-2v-20.59c0-1.65-.35-2-2-2Z"/><path class="cls-6" d="M517.2,1503.76c0-3.19,0-6.38,0-9.57,0-4.07,3.21-6,6.87-4.22,6.44,3.2,12.87,6.45,19.32,9.65a4.44,4.44,0,0,1,2.82,4.13,4.39,4.39,0,0,1-2.76,4.17c-6.55,3.27-13.08,6.56-19.64,9.8-3.31,1.63-6.52-.36-6.61-4v-9.93Zm3.78,0c0,3.19,0,6.38,0,9.58,0,1.26.28,1.43,1.41.87q9.55-4.77,19.1-9.57a4.13,4.13,0,0,0,.91-.82,4.29,4.29,0,0,0-.95-.91q-9.48-4.79-19-9.51c-1.2-.6-1.46-.44-1.47.9C521,1497.45,521,1500.6,521,1503.76Z"/><path class="cls-7" d="M19,1831.69a2.35,2.35,0,0,0,.21-.42,9,9,0,0,1,6.4-6.83l80-26.15q14.53-4.76,29.08-9.5c3.42-1.11,6.66.67,7.22,4a7.61,7.61,0,0,1-.38,3.4q-11.9,36.55-23.86,73.09c-3.71,11.32-7.51,22.62-11.07,34-1.3,4.16-3.45,7.13-7.82,8.18H95.93c-2.77-.64-4.77-2.4-6.7-4.37-4.88-5-9.84-9.88-14.77-14.79a8.9,8.9,0,0,0-9.7-2.31l-11.85,3.87c-4.6,1.5-9.19,3-13.8,4.49a5.35,5.35,0,0,1-6.31-1.87,5.48,5.48,0,0,1-.66-5.24c2.77-8.39,5.47-16.8,8.25-25.19a9.32,9.32,0,0,0-2.46-10.31c-4.87-4.81-9.66-9.71-14.55-14.5-2-1.93-3.75-3.93-4.38-6.7Zm87.92-4.94c1.77-2,3.54-3.92,5.3-5.9.93-1,1-2,.24-2.76s-1.75-.74-2.85.23l-.09.08-18.93,17c-1.25,1.13-2.49,2.27-3.78,3.35a1.76,1.76,0,0,1-2.49-.15,1.82,1.82,0,0,1,.1-2.49,5.62,5.62,0,0,1,.44-.41L97,1824.81c3.54-3.19,7.06-6.41,10.64-9.55a5.29,5.29,0,0,1,7.31.21,5.36,5.36,0,0,1,.36,7.31c-.48.59-1,1.14-1.51,1.71Q91.54,1849.23,69.26,1874c-2.42,2.68-2.39,5.66.06,8.12q12,12,24,24c3.24,3.23,7.92,2.12,9.34-2.24q17.79-54.39,35.57-108.79a2.18,2.18,0,0,0-.27-2.46c-.76-.74-1.59-.52-2.47-.23L27,1827.78c-4.83,1.58-5.91,6.1-2.31,9.7L48,1860.77c3,3,5.69,3,8.81.23l21.62-19.45c1.47-1.32,2.46-1.46,3.29-.48s.56,1.86-.87,3.15l-17.6,15.83a9.66,9.66,0,0,1-1.1.76c4.4,1.48,5.74,2.82,7.54,7.38.22-.28.37-.5.56-.71m-34.4,24.23,26.85-26.85a4.71,4.71,0,0,0-3.94-.06c-.93.36-1.85.76-2.78,1.11a8.87,8.87,0,0,1-9.95-2,8.5,8.5,0,0,1-1-1.47C42.36,1872.69,38.7,1882.15,35.85,1891.71Zm29.8-23.87L38.79,1894.7l1.35-.43c9.17-2.87,18.2-6.21,27.48-8.74-.2-.22-.52-.56-.85-.89a9,9,0,0,1-2.09-10.37c.35-.89.76-1.76,1.08-2.66A4.57,4.57,0,0,0,65.65,1867.84Z"/></g></g></svg>