<svg xmlns="http://www.w3.org/2000/svg" xmlns:xlink="http://www.w3.org/1999/xlink" viewBox="0 0 272.66 255.21"><defs><style>.cls-1{fill:#a0aab7;}.cls-2{fill:url(#Degradado_sin_nombre_28);}.cls-3{fill:#4b6272;}.cls-4{font-size:33.01px;font-family:Montserrat-Bold, Montserrat;font-weight:700;}.cls-4,.cls-5{fill:#fff;}</style><linearGradient id="Degradado_sin_nombre_28" y1="175.16" x2="272.66" y2="175.16" gradientUnits="userSpaceOnUse"><stop offset="0.12" stop-color="#fff" stop-opacity="0"/><stop offset="0.14" stop-color="#f9fdfd" stop-opacity="0.01"/><stop offset="0.46" stop-color="#88d3d3" stop-opacity="0.22"/><stop offset="0.71" stop-color="#42b9b9" stop-opacity="0.35"/><stop offset="0.88" stop-color="#28afb0" stop-opacity="0.4"/></linearGradient></defs><g id="Capa_2" data-name="Capa 2"><g id="Capa_1-2" data-name="Capa 1"><circle class="cls-1" cx="121.64" cy="117.78" r="109.71" transform="translate(-47.66 120.51) rotate(-45)"/><path class="cls-2" d="M272.38,122,257.46,96.13a2,2,0,0,0-3.52,0L239,122a2,2,0,0,0,1.75,3h8.16c-5.43,65.73-60.64,117.55-127.74,117.55A127.44,127.44,0,0,1,11.71,181.11,6.31,6.31,0,0,0,.93,187.69a140,140,0,0,0,120.26,67.52c74.07,0,135-57.49,140.43-130.19h9A2,2,0,0,0,272.38,122Z"/><path class="cls-3" d="M139.43,197.75A109.69,109.69,0,0,1,37.56,47.34a109.7,109.7,0,1,0,186,111.15A109.42,109.42,0,0,1,139.43,197.75Z"/><circle class="cls-1" cx="56.05" cy="30.59" r="30.59" transform="translate(1.12 63.14) rotate(-59.27)"/><text class="cls-4" transform="translate(31.31 40.72)">04</text><path class="cls-5" d="M173.81,145.14a42.14,42.14,0,0,1-1.42,5.3c-3,7.18-8.32,11.58-16.08,12.37-8,.81-14.56-2.28-18.77-9.22-5.69-9.39-11-19-16.54-28.5-.19-.32-.39-.63-.65-1l-.65,1.07-16,27.72a19.32,19.32,0,0,1-14.22,9.89A19.6,19.6,0,0,1,69.75,133.2q10-17.32,20-34.68c4.36-7.55,8.7-15.12,13.09-22.66s11-11,19.6-10.21a18.16,18.16,0,0,1,14.62,9c5,8.32,9.75,16.77,14.6,25.17Q161,116,170.37,132.17a22.54,22.54,0,0,1,3.29,8.82,1.43,1.43,0,0,0,.15.39ZM153,156.05c10.91.15,17.15-10.46,12.23-19q-15-26.13-30.23-52.14a66.39,66.39,0,0,0-5.32-8.09,11.36,11.36,0,0,0-11.37-4.18,12.72,12.72,0,0,0-8.69,19q16.81,29.06,33.6,58.14A11.93,11.93,0,0,0,153,156.05Zm-47.92-19.42c.09-.12.18-.22.25-.33,3.58-6.2,7.15-12.41,10.76-18.59a1.2,1.2,0,0,0-.12-1.4q-5.82-10.07-11.62-20.13c-.88-1.54-1.65-3.14-2.5-4.77L83,124C93.43,122.93,100.72,127.12,105.05,136.63Zm-18.49-6a12.72,12.72,0,1,0,12.69,12.79A12.73,12.73,0,0,0,86.56,130.64Z"/></g></g></svg>