<svg xmlns="http://www.w3.org/2000/svg" xmlns:xlink="http://www.w3.org/1999/xlink" viewBox="0 0 272.66 255.21"><defs><style>.cls-1{fill:#a0aab7;}.cls-2{fill:url(#Degradado_sin_nombre_30);}.cls-3{fill:#4b6272;}.cls-4{font-size:33.01px;font-family:Montserrat-Bold, Montserrat;font-weight:700;}.cls-4,.cls-5{fill:#fff;}</style><linearGradient id="Degradado_sin_nombre_30" y1="175.16" x2="272.66" y2="175.16" gradientUnits="userSpaceOnUse"><stop offset="0.12" stop-color="#fff" stop-opacity="0"/><stop offset="0.14" stop-color="#f9fdfd" stop-opacity="0.01"/><stop offset="0.46" stop-color="#88d3d3" stop-opacity="0.22"/><stop offset="0.71" stop-color="#42b9b9" stop-opacity="0.35"/><stop offset="0.88" stop-color="#28afb0" stop-opacity="0.4"/></linearGradient></defs><g id="Capa_2" data-name="Capa 2"><g id="Capa_1-2" data-name="Capa 1"><circle class="cls-1" cx="121.64" cy="117.78" r="109.71" transform="translate(-47.66 120.51) rotate(-45)"/><path class="cls-2" d="M272.38,122,257.46,96.13a2,2,0,0,0-3.52,0L239,122a2,2,0,0,0,1.76,3h8.16c-5.43,65.73-60.64,117.55-127.74,117.55A127.42,127.42,0,0,1,11.72,181.11,6.32,6.32,0,0,0,.93,187.69a140,140,0,0,0,120.26,67.52c74.07,0,135-57.49,140.43-130.19h9A2,2,0,0,0,272.38,122Z"/><path class="cls-3" d="M139.43,197.75A109.69,109.69,0,0,1,37.56,47.34a109.7,109.7,0,1,0,186,111.15A109.42,109.42,0,0,1,139.43,197.75Z"/><circle class="cls-1" cx="55.05" cy="30.59" r="30.59" transform="translate(13.48 77.89) rotate(-77.75)"/><text class="cls-4" transform="translate(32.07 41.37)">06</text><path class="cls-5" d="M126,125.07a35.07,35.07,0,0,0,3.84-9.26h8.71a1.75,1.75,0,0,0,1.75-1.75V100.13a1.75,1.75,0,0,0-1.75-1.75h-8.71A35.07,35.07,0,0,0,126,89.12L132.11,83a1.75,1.75,0,0,0,.52-1.24,1.77,1.77,0,0,0-.52-1.24l-9.85-9.85a1.75,1.75,0,0,0-2.47,0l-6.17,6.17A35.07,35.07,0,0,0,104.36,73V64.23a1.75,1.75,0,0,0-1.75-1.75H88.68a1.75,1.75,0,0,0-1.75,1.75V73a35.07,35.07,0,0,0-9.26,3.84L71.5,70.62a1.76,1.76,0,0,0-2.48,0l-9.85,9.85a1.76,1.76,0,0,0,0,2.48l6.17,6.17a34.74,34.74,0,0,0-3.84,9.26H52.78A1.75,1.75,0,0,0,51,100.13v13.93a1.75,1.75,0,0,0,1.75,1.75H61.5a34.74,34.74,0,0,0,3.84,9.26l-6.17,6.17a1.74,1.74,0,0,0-.51,1.24,1.72,1.72,0,0,0,.51,1.23L69,143.56a1.74,1.74,0,0,0,2.48,0l6.17-6.16a35.07,35.07,0,0,0,9.26,3.84V150a1.75,1.75,0,0,0,1.75,1.76h13.93a1.75,1.75,0,0,0,1.75-1.76v-8.71a35.21,35.21,0,0,0,9.26-3.84l6.17,6.16a1.73,1.73,0,0,0,2.47,0l9.85-9.85a1.73,1.73,0,0,0,0-2.47ZM121,139.85l-5.91-5.91a1.74,1.74,0,0,0-2.19-.23,31.41,31.41,0,0,1-10.67,4.42,1.75,1.75,0,0,0-1.39,1.72v8.35H90.43v-8.35A1.76,1.76,0,0,0,89,138.13a31.41,31.41,0,0,1-10.67-4.42,1.76,1.76,0,0,0-2.2.23l-5.91,5.91-7.37-7.37,5.91-5.92a1.74,1.74,0,0,0,.23-2.19A31.63,31.63,0,0,1,64.6,113.7a1.75,1.75,0,0,0-1.71-1.39H54.54V101.88h8.35a1.75,1.75,0,0,0,1.71-1.39A31.63,31.63,0,0,1,69,89.82a1.76,1.76,0,0,0-.23-2.2l-5.91-5.91,7.37-7.37,5.91,5.91a1.76,1.76,0,0,0,2.2.23A31.41,31.41,0,0,1,89,76.06a1.76,1.76,0,0,0,1.39-1.72V66h10.43v8.35a1.76,1.76,0,0,0,1.38,1.72,31.38,31.38,0,0,1,10.68,4.42,1.74,1.74,0,0,0,2.19-.23L121,74.34l7.38,7.37-5.92,5.91a1.77,1.77,0,0,0-.23,2.2,31.23,31.23,0,0,1,4.43,10.67,1.76,1.76,0,0,0,1.72,1.39h8.35v10.43H128.4a1.76,1.76,0,0,0-1.72,1.39,31.23,31.23,0,0,1-4.43,10.67,1.75,1.75,0,0,0,.23,2.19l5.92,5.92Z"/><path class="cls-5" d="M95.64,85.25a21.85,21.85,0,1,0,21.85,21.84A21.87,21.87,0,0,0,95.64,85.25Zm0,40.18A18.34,18.34,0,1,1,114,107.09,18.36,18.36,0,0,1,95.64,125.43Z"/><path class="cls-5" d="M194.16,138.4h-5.49a24.14,24.14,0,0,0-2.33-5.64l3.88-3.88a1.76,1.76,0,0,0,0-2.48l-6.69-6.69a1.74,1.74,0,0,0-2.48,0l-3.89,3.88a24.1,24.1,0,0,0-5.63-2.34v-5.49a1.76,1.76,0,0,0-1.76-1.75h-9.46a1.75,1.75,0,0,0-1.75,1.75v5.49a24.17,24.17,0,0,0-5.64,2.34L149,119.71a1.74,1.74,0,0,0-2.48,0l-6.69,6.69a1.74,1.74,0,0,0,0,2.48l3.88,3.88a24.17,24.17,0,0,0-2.34,5.64h-5.49a1.75,1.75,0,0,0-1.75,1.75v9.47a1.75,1.75,0,0,0,1.75,1.75h5.49a24.17,24.17,0,0,0,2.34,5.64l-3.88,3.88a1.74,1.74,0,0,0,0,2.48l6.69,6.69a1.74,1.74,0,0,0,2.48,0l3.88-3.88a24.61,24.61,0,0,0,5.64,2.34V174a1.75,1.75,0,0,0,1.75,1.75h9.46a1.76,1.76,0,0,0,1.76-1.75v-5.49a24.54,24.54,0,0,0,5.63-2.34l3.89,3.88a1.74,1.74,0,0,0,2.48,0l6.69-6.69a1.76,1.76,0,0,0,0-2.48L186.34,157a24.14,24.14,0,0,0,2.33-5.64h5.49a1.76,1.76,0,0,0,1.76-1.75v-9.47A1.75,1.75,0,0,0,194.16,138.4Zm-1.75,9.46H187.3a1.76,1.76,0,0,0-1.72,1.39,20.79,20.79,0,0,1-2.93,7.07,1.75,1.75,0,0,0,.23,2.19l3.62,3.62-4.21,4.21-3.62-3.62a1.77,1.77,0,0,0-2.2-.22,21,21,0,0,1-7.06,2.93,1.75,1.75,0,0,0-1.39,1.71v5.11h-6v-5.11a1.75,1.75,0,0,0-1.39-1.71,21,21,0,0,1-7.06-2.93,1.75,1.75,0,0,0-2.19.22l-3.62,3.62-4.22-4.21,3.62-3.62a1.74,1.74,0,0,0,.23-2.19,20.79,20.79,0,0,1-2.93-7.07,1.75,1.75,0,0,0-1.71-1.39h-5.12v-6h5.12a1.75,1.75,0,0,0,1.71-1.39,20.83,20.83,0,0,1,2.93-7.06,1.74,1.74,0,0,0-.23-2.19l-3.62-3.62,4.22-4.21,3.62,3.62a1.74,1.74,0,0,0,2.19.22,21,21,0,0,1,7.06-2.93,1.75,1.75,0,0,0,1.39-1.71v-5.11h6v5.11a1.75,1.75,0,0,0,1.39,1.71,21,21,0,0,1,7.06,2.93,1.75,1.75,0,0,0,2.2-.22l3.62-3.62,4.21,4.21-3.62,3.62a1.75,1.75,0,0,0-.23,2.19,20.83,20.83,0,0,1,2.93,7.06,1.76,1.76,0,0,0,1.72,1.39h5.11Z"/><path class="cls-5" d="M165,129.48a15.41,15.41,0,1,0,15.41,15.4A15.42,15.42,0,0,0,165,129.48Zm0,27.3a11.9,11.9,0,1,1,11.9-11.9A11.91,11.91,0,0,1,165,156.78Z"/></g></g></svg>