<svg xmlns="http://www.w3.org/2000/svg" xmlns:xlink="http://www.w3.org/1999/xlink" viewBox="0 0 272.66 257.5"><defs><style>.cls-1{fill:#a1abb8;}.cls-2{fill:#097188;}.cls-3{fill:#fff;}.cls-4{fill:url(#Degradado_sin_nombre_30);}.cls-5{font-size:33.01px;fill:#28afb0;font-family:Montserrat-Bold, Montserrat;font-weight:700;}</style><linearGradient id="Degradado_sin_nombre_30" y1="80.05" x2="272.66" y2="80.05" gradientUnits="userSpaceOnUse"><stop offset="0.12" stop-color="#fff" stop-opacity="0"/><stop offset="0.14" stop-color="#f9fdfd" stop-opacity="0.01"/><stop offset="0.46" stop-color="#88d3d3" stop-opacity="0.22"/><stop offset="0.71" stop-color="#42b9b9" stop-opacity="0.35"/><stop offset="0.88" stop-color="#28afb0" stop-opacity="0.4"/></linearGradient></defs><g id="Capa_2" data-name="Capa 2"><g id="Capa_1-2" data-name="Capa 1"><circle class="cls-1" cx="121.19" cy="140.83" r="109.71" transform="translate(-64.09 126.94) rotate(-45)"/><path class="cls-2" d="M139,220.8A109.69,109.69,0,0,1,37.11,70.38a109.7,109.7,0,1,0,186,111.16A109.45,109.45,0,0,1,139,220.8Z"/><circle class="cls-3" cx="53.13" cy="226.91" r="30.59" transform="translate(-179.87 222.11) rotate(-75.64)"/><path class="cls-4" d="M270.62,130.18h-9C256.16,57.48,195.26,0,121.19,0A140,140,0,0,0,.93,67.51,6.32,6.32,0,0,0,11.72,74.1,127.4,127.4,0,0,1,121.19,12.64c67.1,0,122.31,51.82,127.74,117.54h-8.16a2,2,0,0,0-1.76,3l14.93,25.85a2,2,0,0,0,3.52,0l14.92-25.85A2,2,0,0,0,270.62,130.18Z"/><text class="cls-5" transform="translate(29.13 238.93)">05</text><path class="cls-3" d="M174.73,151.56a13.69,13.69,0,0,0-3.11-1.31V120.91a13.69,13.69,0,0,0,3.11-1.31,13.53,13.53,0,0,0,5-18.48,13.53,13.53,0,0,0-18.48-5,13.7,13.7,0,0,0-2.69,2L133.1,83.53a13.53,13.53,0,1,0-26.23,0L81.47,98.2a13.91,13.91,0,0,0-2.69-2,13.54,13.54,0,0,0-19.84,15.23,13.47,13.47,0,0,0,6.31,8.21,13.18,13.18,0,0,0,3.1,1.31v29.34A13.53,13.53,0,0,0,72,176.81h0A13.51,13.51,0,0,0,78.78,175a13.86,13.86,0,0,0,2.69-2l25.4,14.66a13.66,13.66,0,0,0-.41,3.35A13.52,13.52,0,0,0,120,204.51h0A13.52,13.52,0,0,0,133.52,191a13.66,13.66,0,0,0-.42-3.35L158.51,173a13.86,13.86,0,0,0,2.69,2,13.47,13.47,0,0,0,6.75,1.81h0a13.53,13.53,0,0,0,6.78-25.25ZM123.65,178V153.13a18,18,0,0,0,9.69-5.61l21.51,12.41a13.41,13.41,0,0,0,0,6.69L129.43,181.3A13.56,13.56,0,0,0,123.65,178Zm-13.11,3.35L85.12,166.62a13.53,13.53,0,0,0,0-6.69l21.5-12.41a18,18,0,0,0,9.7,5.61V178A13.54,13.54,0,0,0,110.54,181.3ZM75.67,120.91a13.63,13.63,0,0,0,5.79-3.35L103,130a18.06,18.06,0,0,0,0,11.2L81.46,153.6a13.51,13.51,0,0,0-5.79-3.34Zm40.66-27.7V118a17.9,17.9,0,0,0-9.7,5.6l-21.5-12.41a13.53,13.53,0,0,0,0-6.69l25.42-14.68A13.54,13.54,0,0,0,116.33,93.21Zm13.1-3.35,25.43,14.68a13.65,13.65,0,0,0,0,6.69l-21.51,12.41a17.88,17.88,0,0,0-9.69-5.6V93.21A13.56,13.56,0,0,0,129.43,89.86ZM120,146.18a10.6,10.6,0,1,1,10.6-10.6A10.61,10.61,0,0,1,120,146.18Zm38.52,7.42L137,141.18a17.87,17.87,0,0,0,0-11.2l21.51-12.42a13.59,13.59,0,0,0,5.78,3.35v29.35A13.57,13.57,0,0,0,158.51,153.6Zm6.35-51.1a6.21,6.21,0,0,1,8.48,2.28,6.2,6.2,0,0,1-5.37,9.31h0a6.21,6.21,0,0,1-3.11-11.59ZM120,74a6.21,6.21,0,1,1-6.21,6.21A6.22,6.22,0,0,1,120,74ZM66,109.49a6.21,6.21,0,0,1,6-7.82,6.29,6.29,0,0,1,3.1.83A6.23,6.23,0,0,1,77.39,111,6.26,6.26,0,0,1,72,114.1a6.25,6.25,0,0,1-6-4.61Zm9.11,59.17a6.29,6.29,0,0,1-3.1.83h0a6.21,6.21,0,0,1-6-7.82,6.22,6.22,0,0,1,6-4.6,6.25,6.25,0,0,1,5.39,3.1,6.22,6.22,0,0,1-2.27,8.49Zm49.26,26.71a6.17,6.17,0,0,1-4.39,1.82h0a6.21,6.21,0,1,1,4.39-1.82Zm49-29a6.2,6.2,0,1,1-2.27-8.48A6.24,6.24,0,0,1,173.34,166.38Z"/></g></g></svg>