<svg xmlns="http://www.w3.org/2000/svg" xmlns:xlink="http://www.w3.org/1999/xlink" viewBox="0 0 272.66 255.21"><defs><style>.cls-1{fill:#a0aab7;}.cls-2{fill:url(#Degradado_sin_nombre_30);}.cls-3{fill:#4b6272;}.cls-4{font-size:33.01px;font-family:Montserrat-Bold, Montserrat;font-weight:700;}.cls-4,.cls-5{fill:#fff;}</style><linearGradient id="Degradado_sin_nombre_30" y1="175.16" x2="272.66" y2="175.16" gradientUnits="userSpaceOnUse"><stop offset="0.12" stop-color="#fff" stop-opacity="0"/><stop offset="0.14" stop-color="#f9fdfd" stop-opacity="0.01"/><stop offset="0.46" stop-color="#88d3d3" stop-opacity="0.22"/><stop offset="0.71" stop-color="#42b9b9" stop-opacity="0.35"/><stop offset="0.88" stop-color="#28afb0" stop-opacity="0.4"/></linearGradient></defs><g id="Capa_2" data-name="Capa 2"><g id="Capa_1-2" data-name="Capa 1"><circle class="cls-1" cx="121.64" cy="117.78" r="109.71" transform="translate(-47.66 120.51) rotate(-45)"/><path class="cls-2" d="M272.38,122,257.46,96.13a2,2,0,0,0-3.52,0L239,122a2,2,0,0,0,1.75,3h8.16c-5.43,65.73-60.64,117.55-127.74,117.55A127.44,127.44,0,0,1,11.71,181.11,6.31,6.31,0,0,0,.93,187.69a140,140,0,0,0,120.26,67.52c74.07,0,135-57.49,140.43-130.19h9A2,2,0,0,0,272.38,122Z"/><path class="cls-3" d="M139.43,197.75A109.69,109.69,0,0,1,37.56,47.34a109.7,109.7,0,1,0,186,111.15A109.42,109.42,0,0,1,139.43,197.75Z"/><circle class="cls-1" cx="56.05" cy="30.59" r="30.59" transform="translate(1.12 63.14) rotate(-59.27)"/><text class="cls-4" transform="translate(31.79 40.72)">08</text><path class="cls-5" d="M132.78,183.62a1.34,1.34,0,0,1-.62-.14c-1.92-1-2.52-2.64-2.51-4.82q.06-30.42,0-60.85c0-3.6,1.29-4.91,4.86-4.91,10,0,20.07,0,30.11,0a5.25,5.25,0,0,1,2.92,1.08c4,3.39,7.94,6.84,11.86,10.31a2.58,2.58,0,0,1,.81,1.71c0,17.71,0,35.42,0,53.12v.07a4.51,4.51,0,0,1-4.56,4.4Zm31.74-67.92c-.42,0-.62,0-.83,0-9.91,0-19.82,0-29.74,0,.19-.07-.56-.07-.78,1.79q0,30.83,0,61.65a2.27,2.27,0,0,0,1.12,1.07c16.21.15,26.75,0,40.12,0a2.36,2.36,0,0,0,2.36-2.36q0-24.83,0-49.64v-.06a1.37,1.37,0,0,0-1.37-1.38H165.9a1.38,1.38,0,0,1-1.38-1.38Zm2.81,2.69v5.08a.4.4,0,0,0,.4.4h6a.42.42,0,0,0,.28-.74L168.1,118A.46.46,0,0,0,167.33,118.39Z"/><path class="cls-5" d="M99.07,59.62c-.06,4.67-.13,9.2-.17,13.72,0,2.85.94,3.82,3.75,3.82q18.8,0,37.59,0c2.69,0,3.73-1,3.74-3.74,0-3.26.05-6.52,0-9.78a32.88,32.88,0,0,0-.52-3.94c.41,0,.82-.08,1.22-.08h13.78c4,0,5.94,2,5.94,5.92v44.64h-4.32V65.81c0-1.87,0-1.89-1.85-1.89h-10v3c0,2.4,0,4.81,0,7.21a7.08,7.08,0,0,1-7.46,7.29c-4,0-8,0-12,0H102.66c-5.21,0-8.06-2.84-8.06-8,0-3.12,0-6.24,0-9.5-3.72,0-7.31,0-10.9,0-.31,0-.69.59-.9,1s0,.67,0,1v97.44c0,2.13,0,2.13,2.16,2.13H127v4.25H84.42c-4.08,0-6-1.89-6-6V65.71c0-4.17,1.9-6.08,6-6.09H99.07Z"/><path class="cls-5" d="M113.28,59.34c1.79-5.49,4.15-7.62,8.26-7.52s6.4,2.28,7.9,7.52H137a15.45,15.45,0,0,1,1.8,0,2.51,2.51,0,0,1,2.47,2.73c0,3.22,0,6.43,0,9.65a2.49,2.49,0,0,1-2.76,2.7q-17,0-34.08,0a2.53,2.53,0,0,1-2.8-2.69c-.06-3.21,0-6.43,0-9.65,0-1.81,1.06-2.74,3-2.77,2.44,0,4.89,0,7.33,0Z"/><path class="cls-5" d="M155,149.63h15.05a5.41,5.41,0,0,1,1.4.1,1.85,1.85,0,0,1,1.49,1.86,1.83,1.83,0,0,1-1.48,2,5.94,5.94,0,0,1-1.4.14H139.84a5.42,5.42,0,0,1-1.14-.08,2,2,0,0,1,.23-4c1-.08,2,0,3,0Z"/><path class="cls-5" d="M154.92,165.09h-15a6,6,0,0,1-1.28-.07,1.87,1.87,0,0,1-1.56-1.8,1.81,1.81,0,0,1,1.38-2,6.52,6.52,0,0,1,1.65-.17h29.83c.26,0,.52,0,.77,0,1.46.09,2.3.86,2.28,2.08s-.86,2-2.33,2Z"/><path class="cls-5" d="M154.9,141.68H140a6.86,6.86,0,0,1-1.28-.05A1.85,1.85,0,0,1,137,139.8a1.8,1.8,0,0,1,1.39-2,6,6,0,0,1,1.53-.17H170a6.36,6.36,0,0,1,1.15.08,2,2,0,0,1-.22,4,11,11,0,0,1-1.15,0Z"/></g></g></svg>