<svg xmlns="http://www.w3.org/2000/svg" xmlns:xlink="http://www.w3.org/1999/xlink" viewBox="0 0 272.66 257.5"><defs><style>.cls-1{fill:#a0aab7;}.cls-2{fill:url(#Degradado_sin_nombre_30);}.cls-3{fill:#097188;}.cls-4{fill:#fff;}.cls-5{font-size:33.01px;fill:#28afb0;font-family:Montserrat-Bold, Montserrat;font-weight:700;}.cls-6{letter-spacing:0em;}</style><linearGradient id="Degradado_sin_nombre_30" y1="80.05" x2="272.66" y2="80.05" gradientUnits="userSpaceOnUse"><stop offset="0.12" stop-color="#fff" stop-opacity="0"/><stop offset="0.14" stop-color="#f9fdfd" stop-opacity="0.01"/><stop offset="0.46" stop-color="#88d3d3" stop-opacity="0.22"/><stop offset="0.71" stop-color="#42b9b9" stop-opacity="0.35"/><stop offset="0.88" stop-color="#28afb0" stop-opacity="0.4"/></linearGradient></defs><g id="Capa_2" data-name="Capa 2"><g id="Capa_1-2" data-name="Capa 1"><circle class="cls-1" cx="121.19" cy="140.83" r="109.71" transform="translate(-64.09 126.94) rotate(-45)"/><path class="cls-2" d="M270.62,130.18h-9C256.16,57.48,195.26,0,121.19,0A140,140,0,0,0,.93,67.51,6.32,6.32,0,0,0,11.72,74.1,127.42,127.42,0,0,1,121.19,12.64c67.1,0,122.31,51.82,127.74,117.54h-8.16a2,2,0,0,0-1.76,3l14.93,25.85a2,2,0,0,0,3.52,0l14.92-25.85A2,2,0,0,0,270.62,130.18Z"/><path class="cls-3" d="M139,220.8A109.69,109.69,0,0,1,37.13,70.38a109.7,109.7,0,1,0,186,111.16A109.45,109.45,0,0,1,139,220.8Z"/><circle class="cls-4" cx="54.13" cy="226.91" r="30.59" transform="translate(-178.68 241.6) rotate(-80.19)"/><text class="cls-5" transform="translate(29.23 237.87)"><tspan class="cls-6">0</tspan><tspan x="22.28" y="0">7</tspan></text><path class="cls-4" d="M166.46,194.77a5.48,5.48,0,0,1-4-1.54l-2.85-2.84-25-24.59a44.09,44.09,0,1,1,13.83-13.44l22.83,22.5h0l4.78,4.76c2.66,2.66,1.75,7.74-2.07,11.56a12.45,12.45,0,0,1-5.74,3.38A8,8,0,0,1,166.46,194.77Zm-31.27-34.18,27.31,26.9,2.86,2.86a2.21,2.21,0,0,0,2,.23,8.48,8.48,0,0,0,3.8-2.29c2.4-2.4,2.82-5,2.06-5.8l-3.41-3.4-26.64-26.24,1-1.42a39.67,39.67,0,1,0-10.37,10.08Zm-22.85-.78a31.49,31.49,0,1,1,31.48-31.48A31.52,31.52,0,0,1,112.34,159.81Zm0-58.89a27.41,27.41,0,1,0,27.4,27.41A27.44,27.44,0,0,0,112.34,100.92Z"/><path class="cls-4" d="M166.46,195.88a6.65,6.65,0,0,1-4.77-1.86l-2.85-2.85-24.34-24a45.26,45.26,0,1,1,15.41-15l21.45,21.13h0l.75.73,4.77,4.76c3.11,3.11,2.2,8.88-2.06,13.14a13.55,13.55,0,0,1-6.27,3.67A9,9,0,0,1,166.46,195.88Zm-31.64-31.49,25.59,25.2,2.85,2.86a4.41,4.41,0,0,0,3.2,1.21,6.92,6.92,0,0,0,1.59-.2,11.4,11.4,0,0,0,5.21-3.07c3.37-3.38,4.28-7.77,2.06-10l-4.78-4.75-23.49-23.14.5-.76a42.67,42.67,0,1,0-13.47,13.1Zm31.62,27.42a2.58,2.58,0,0,1-1.87-.67l-2.86-2.86L135.05,162l-.63.41a41.13,41.13,0,1,1,10.67-10.35l-.46.64,26,25.58,3.42,3.4c1.28,1.29.76,4.56-2.06,7.38a9.63,9.63,0,0,1-4.33,2.58A5.09,5.09,0,0,1,166.44,191.81Zm-.32-2.27a2,2,0,0,0,1,0,7.27,7.27,0,0,0,3.27-2c1.93-1.92,2.24-3.81,2-4.25L169,179.88,141.71,153l1.56-2.19a38.54,38.54,0,1,0-10.08,9.8l2.13-1.42,28,27.54Zm0,0Zm-53.81-28.63a32.6,32.6,0,1,1,32.6-32.6A32.64,32.64,0,0,1,112.34,160.93Zm0-63a30.37,30.37,0,1,0,30.37,30.37A30.41,30.41,0,0,0,112.34,98Zm0,58.89a28.52,28.52,0,1,1,28.52-28.52A28.56,28.56,0,0,1,112.34,156.85Zm0-54.81a26.29,26.29,0,1,0,26.29,26.29A26.32,26.32,0,0,0,112.34,102Z"/></g></g></svg>