<svg xmlns="http://www.w3.org/2000/svg" xmlns:xlink="http://www.w3.org/1999/xlink" viewBox="0 0 272.66 257.5"><defs><style>.cls-1{fill:#a0aab7;}.cls-2{fill:#097188;}.cls-3{fill:#fff;}.cls-4{fill:url(#Degradado_sin_nombre_28);}.cls-5{font-size:33.01px;fill:#28afb0;font-family:Montserrat-Bold, Montserrat;font-weight:700;}.cls-6{letter-spacing:-0.01em;}</style><linearGradient id="Degradado_sin_nombre_28" y1="80.05" x2="272.66" y2="80.05" gradientUnits="userSpaceOnUse"><stop offset="0.12" stop-color="#fff" stop-opacity="0"/><stop offset="0.14" stop-color="#f9fdfd" stop-opacity="0.01"/><stop offset="0.46" stop-color="#88d3d3" stop-opacity="0.22"/><stop offset="0.71" stop-color="#42b9b9" stop-opacity="0.35"/><stop offset="0.88" stop-color="#28afb0" stop-opacity="0.4"/></linearGradient></defs><g id="Capa_2" data-name="Capa 2"><g id="Capa_1-2" data-name="Capa 1"><circle class="cls-1" cx="121.19" cy="140.83" r="109.71" transform="translate(-64.09 126.94) rotate(-45)"/><path class="cls-2" d="M139,220.8A109.69,109.69,0,0,1,37.11,70.38a109.7,109.7,0,1,0,186,111.16A109.45,109.45,0,0,1,139,220.8Z"/><circle class="cls-3" cx="53.13" cy="226.91" r="30.59" transform="translate(-179.87 222.11) rotate(-75.64)"/><path class="cls-4" d="M270.62,130.18h-9C256.16,57.48,195.26,0,121.19,0A140,140,0,0,0,.93,67.51,6.32,6.32,0,0,0,11.72,74.1,127.4,127.4,0,0,1,121.19,12.64c67.1,0,122.31,51.82,127.74,117.54h-8.16a2,2,0,0,0-1.76,3l14.93,25.85a2,2,0,0,0,3.52,0l14.92-25.85A2,2,0,0,0,270.62,130.18Z"/><text class="cls-5" transform="translate(32.58 238.93)"><tspan class="cls-6">0</tspan><tspan x="22.22" y="0">1</tspan></text><path class="cls-3" d="M67.29,110.27a6.67,6.67,0,0,1,.66.49q19.93,19.93,39.88,39.85a2.59,2.59,0,0,1,.82,2q0,21.93,0,43.86v.85l.64-.59q7.58-7.59,15.17-15.16a1.65,1.65,0,0,0,.53-1.29c0-9.36,0-18.71,0-28.06a1.73,1.73,0,0,1,.56-1.35q6.92-6.87,13.81-13.79c.14-.14.27-.3.5-.54H139c-7.13,0-14.25,0-21.38,0a1.89,1.89,0,0,1-1.51-.64q-5.76-5.82-11.55-11.6l-8.71-8.72c-.17-.17-.32-.36-.48-.55l.07-.16h.86q28.77,0,57.54,0a1.93,1.93,0,0,0,1.5-.63q7.54-7.59,15.11-15.13c.13-.13.24-.27.44-.49H79.54a1.47,1.47,0,0,0-1.13.46q-5.26,5.31-10.57,10.59C67.7,109.82,67.58,110,67.29,110.27Z"/><path class="cls-3" d="M67.29,110.27c.29-.3.41-.45.55-.58q5.3-5.3,10.57-10.59a1.47,1.47,0,0,1,1.13-.46H170.9c-.2.22-.31.36-.44.49q-7.56,7.56-15.11,15.13a1.93,1.93,0,0,1-1.5.63q-28.77,0-57.54,0h-.86l-.07.16c.16.19.31.38.48.55l8.71,8.72q5.79,5.79,11.55,11.6a1.89,1.89,0,0,0,1.51.64c7.13,0,14.25,0,21.38,0h.81c-.23.24-.36.4-.5.54q-6.9,6.9-13.81,13.79a1.73,1.73,0,0,0-.56,1.35c0,9.35,0,18.7,0,28.06a1.65,1.65,0,0,1-.53,1.29q-7.6,7.56-15.17,15.16l-.64.59v-.85q0-21.93,0-43.86a2.59,2.59,0,0,0-.82-2Q87.87,130.7,68,110.76A6.67,6.67,0,0,0,67.29,110.27Z"/></g></g></svg>