<svg xmlns="http://www.w3.org/2000/svg" xmlns:xlink="http://www.w3.org/1999/xlink" viewBox="0 0 272.66 257.5"><defs><style>.cls-1{fill:#a0aab7;}.cls-2{fill:url(#Degradado_sin_nombre_28);}.cls-3{fill:#097188;}.cls-4{fill:#fff;}.cls-5{font-size:33.01px;fill:#28afb0;font-family:Montserrat-Bold, Montserrat;font-weight:700;}.cls-6{letter-spacing:-0.01em;}</style><linearGradient id="Degradado_sin_nombre_28" y1="80.05" x2="272.66" y2="80.05" gradientUnits="userSpaceOnUse"><stop offset="0.12" stop-color="#fff" stop-opacity="0"/><stop offset="0.14" stop-color="#f9fdfd" stop-opacity="0.01"/><stop offset="0.46" stop-color="#88d3d3" stop-opacity="0.22"/><stop offset="0.71" stop-color="#42b9b9" stop-opacity="0.35"/><stop offset="0.88" stop-color="#28afb0" stop-opacity="0.4"/></linearGradient></defs><g id="Capa_2" data-name="Capa 2"><g id="Capa_1-2" data-name="Capa 1"><circle class="cls-1" cx="121.19" cy="140.83" r="109.71" transform="translate(-64.09 126.94) rotate(-45)"/><path class="cls-2" d="M270.62,130.18h-9C256.16,57.48,195.26,0,121.19,0A140,140,0,0,0,.93,67.51,6.32,6.32,0,0,0,11.72,74.1,127.42,127.42,0,0,1,121.19,12.64c67.1,0,122.31,51.82,127.74,117.54h-8.16a2,2,0,0,0-1.76,3l14.93,25.85a2,2,0,0,0,3.52,0l14.92-25.85A2,2,0,0,0,270.62,130.18Z"/><path class="cls-3" d="M139,220.8A109.69,109.69,0,0,1,37.13,70.38a109.7,109.7,0,1,0,186,111.16A109.45,109.45,0,0,1,139,220.8Z"/><circle class="cls-4" cx="54.13" cy="226.91" r="30.59" transform="translate(-178.68 241.6) rotate(-80.19)"/><text class="cls-5" transform="translate(29.79 237.87)"><tspan class="cls-6">0</tspan><tspan x="22.09" y="0">3</tspan></text><path class="cls-4" d="M165.85,148.74a3.22,3.22,0,0,1-.75-.1,2.81,2.81,0,0,1-2-3.47l3.27-11.89a2.82,2.82,0,0,1,5.44,1.5l-3.27,11.89A2.83,2.83,0,0,1,165.85,148.74Z"/><circle class="cls-4" cx="176.15" cy="130.28" r="2.82"/><circle class="cls-4" cx="71.53" cy="129.43" r="2.82"/><path class="cls-4" d="M166,162.19a8.81,8.81,0,0,1-4.37-1.17l-23.79-14.44a2.83,2.83,0,0,1,2.94-4.83l23.7,14.4a3.06,3.06,0,0,0,2.36.28,3.11,3.11,0,0,0,.75-5.7l-41.83-24.27a2.82,2.82,0,1,1,2.83-4.88l41.83,24.26A8.77,8.77,0,0,1,166,162.19Z"/><path class="cls-4" d="M158.76,172a8.73,8.73,0,0,1-4.41-1.19l-24.58-14.34a2.82,2.82,0,0,1,2.84-4.88l24.58,14.34a3.16,3.16,0,0,0,4.32-1.14,3.16,3.16,0,0,0-1.15-4.32,2.9,2.9,0,0,1-.29-.19l-22.18-13.64a2.82,2.82,0,1,1,3-4.8l22.38,13.77A8.8,8.8,0,0,1,158.76,172Z"/><path class="cls-4" d="M149.08,180.31a8.73,8.73,0,0,1-4.41-1.19l-21-12.28a2.83,2.83,0,0,1,2.85-4.88l21,12.28a3.16,3.16,0,1,0,3.15-5.48l-20.9-12.28a2.82,2.82,0,1,1,2.86-4.87l20.88,12.28a8.8,8.8,0,0,1-4.42,16.42Z"/><path class="cls-4" d="M80,148.77l-1.53-5.7-4.15-2.38,2.81-4.9,5.16,3a2.81,2.81,0,0,1,1.33,1.71l1.83,6.83Z"/><path class="cls-4" d="M137.39,187.29a8.85,8.85,0,0,1-4.36-1.16l-10.61-5.6a2.82,2.82,0,1,1,2.63-5l10.7,5.64a3.22,3.22,0,0,0,4.43-1.12,3.17,3.17,0,0,0-1.17-4.32,2.82,2.82,0,0,1,2.81-4.9,8.81,8.81,0,0,1-4.43,16.45Z"/><path class="cls-4" d="M173.24,143.94a2.8,2.8,0,0,1-2.44-1.41l-22-38a2.88,2.88,0,0,1-.28-2.15,2.82,2.82,0,0,1,1.31-1.71l13.83-8a2.79,2.79,0,0,1,2.15-.28,2.85,2.85,0,0,1,1.71,1.31l22,38.1a2.88,2.88,0,0,1,.28,2.15,2.85,2.85,0,0,1-1.33,1.71l-13.8,7.91A2.82,2.82,0,0,1,173.24,143.94Zm-18.16-39.81,19.19,33.14,8.91-5.1L164,99Z"/><path class="cls-4" d="M74.43,143.09a2.85,2.85,0,0,1-1.4-.37l-13.8-7.9a2.82,2.82,0,0,1-1-3.86l22-38.1a2.86,2.86,0,0,1,1.72-1.32,2.81,2.81,0,0,1,2.14.29l13.83,8a2.84,2.84,0,0,1,1,3.86l-22,38A2.82,2.82,0,0,1,74.43,143.09Zm-9.94-11.76,8.91,5.1,19.19-33.14-8.94-5.16Z"/><circle class="cls-4" cx="71.53" cy="129.43" r="2.82"/><path class="cls-4" d="M82.31,163.83a8.81,8.81,0,0,1-8-5,9.07,9.07,0,0,1,3.73-11.52l6.11-3.68.21-.11h0a8.84,8.84,0,0,1,8.87,15.28l-6.47,3.82a8,8,0,0,1-.72.38A8.69,8.69,0,0,1,82.31,163.83Zm4.78-15.38-6.15,3.7a3.42,3.42,0,0,0-1.46,4.33,3.15,3.15,0,0,0,4.17,1.4l.27-.14,6.46-3.81a3.14,3.14,0,0,0,1.08-4.29,3.27,3.27,0,0,0-2-1.53,3.2,3.2,0,0,0-2.4.34Z"/><path class="cls-4" d="M88.11,174.31a8.78,8.78,0,0,1-8-5,9,9,0,0,1,3.75-11.5l9.71-5.86h0a8.81,8.81,0,1,1,9.1,15.08l-10.09,6.06a6.77,6.77,0,0,1-.8.43A8.63,8.63,0,0,1,88.11,174.31Zm8.41-17.57-9.76,5.9a3.37,3.37,0,0,0-1.47,4.3,3.1,3.1,0,0,0,4.13,1.43,2.44,2.44,0,0,0,.28-.14l10.09-6.08a3.16,3.16,0,1,0-3.27-5.41Z"/><path class="cls-4" d="M99.66,181.27a8.82,8.82,0,0,1-8-5.05,9.11,9.11,0,0,1,3.77-11.5l6.05-3.64h0a8.79,8.79,0,0,1,9,15.09L104.18,180a8,8,0,0,1-.75.4A8.82,8.82,0,0,1,99.66,181.27Zm4.76-15.35-6.1,3.66a3.45,3.45,0,0,0-1.48,4.33,3.1,3.1,0,0,0,1.75,1.53,3.15,3.15,0,0,0,2.41-.11l.28-.15,6.35-3.85a3.15,3.15,0,0,0-3.21-5.41Z"/><path class="cls-4" d="M114.55,185.85a8.83,8.83,0,0,1-7.94-4.93,9.06,9.06,0,0,1,3.74-11.63l1.09-.69.42-.24a8.81,8.81,0,0,1,8.71,15.31l-1.47.91a6.91,6.91,0,0,1-.68.37A8.75,8.75,0,0,1,114.55,185.85ZM116,173a3.08,3.08,0,0,0-1.5.39l-1.18.73-.13.08a3.4,3.4,0,0,0-1.45,4.36,3.21,3.21,0,0,0,4.22,1.35l1.67-1a3.17,3.17,0,0,0-.72-5.75A3.19,3.19,0,0,0,116,173Z"/><path class="cls-4" d="M100.82,109.28h-6.4a2.82,2.82,0,1,1,0-5.64h6.4a2.82,2.82,0,1,1,0,5.64Z"/><path class="cls-4" d="M104.25,134.89a15.86,15.86,0,0,1-3.33-.36c-.28-.05-.56-.12-.85-.2a2.81,2.81,0,0,1-2-3.45l5.84-21.82a2.81,2.81,0,0,1,1.7-1.9L118.87,102a2.83,2.83,0,0,1,1.6-.14l23.71,4.91A2.82,2.82,0,0,1,143,112.3l-22.88-4.74L109,111.9l-4.64,17.34a10.31,10.31,0,0,0,9.94-8.16l1-3.5a2.82,2.82,0,0,1,5.44,1.52l-.94,3.33A15.89,15.89,0,0,1,104.25,134.89Z"/></g></g></svg>