<svg xmlns="http://www.w3.org/2000/svg" xmlns:xlink="http://www.w3.org/1999/xlink" viewBox="0 0 1215.63 1506.17"><defs><style>.cls-1{isolation:isolate;}.cls-2{fill:none;stroke-miterlimit:10;stroke-width:133px;stroke:url(#Degradado_sin_nombre_24);}.cls-3{fill:#fff;}.cls-31,.cls-4{font-size:54.14px;fill:#1984a0;font-family:Montserrat-Bold, Montserrat;font-weight:700;}.cls-33,.cls-4{letter-spacing:0.06em;}.cls-5{letter-spacing:0.05em;}.cls-6{letter-spacing:0.06em;}.cls-7{letter-spacing:0.06em;}.cls-8{letter-spacing:0.07em;}.cls-9{letter-spacing:0.06em;}.cls-10{letter-spacing:0.05em;}.cls-11{letter-spacing:0.07em;}.cls-12{letter-spacing:0.04em;}.cls-13,.cls-14,.cls-20,.cls-40{font-size:32.78px;font-family:Montserrat-Medium, Montserrat;font-weight:500;}.cls-13,.cls-14,.cls-20,.cls-40,.cls-42{fill:#4b6272;}.cls-13,.cls-21{letter-spacing:0.06em;}.cls-14,.cls-38{letter-spacing:0.06em;}.cls-15,.cls-40{letter-spacing:0.06em;}.cls-16{letter-spacing:0.05em;}.cls-17{letter-spacing:0.06em;}.cls-18{letter-spacing:0.04em;}.cls-19{letter-spacing:0.07em;}.cls-20,.cls-37{letter-spacing:0.06em;}.cls-22{letter-spacing:0.05em;}.cls-23{letter-spacing:0.05em;}.cls-24{letter-spacing:0.04em;}.cls-25{letter-spacing:0.05em;}.cls-26{letter-spacing:0.08em;}.cls-27{letter-spacing:0.04em;}.cls-28{letter-spacing:0.06em;}.cls-29{letter-spacing:0.05em;}.cls-30{letter-spacing:0.07em;}.cls-31{letter-spacing:0.06em;}.cls-32{letter-spacing:0.05em;}.cls-34{letter-spacing:0.05em;}.cls-35{letter-spacing:0.04em;}.cls-36{letter-spacing:0.05em;}.cls-39{letter-spacing:0.05em;}.cls-41{fill:#28afb0;}.cls-43{fill:#f4f4f4;}.cls-44{fill:#a1abb8;}.cls-45{fill:url(#Degradado_sin_nombre_36);}.cls-46{fill:url(#Degradado_sin_nombre_36-2);}.cls-47{fill:url(#Degradado_sin_nombre_36-3);}.cls-48{mix-blend-mode:color-burn;opacity:0.2;}.cls-49{fill:#303030;}.cls-50{fill:#e7effc;}.cls-51{fill:#f0f2f1;}</style><linearGradient id="Degradado_sin_nombre_24" x1="126.27" y1="722.13" x2="1048.91" y2="722.13" gradientUnits="userSpaceOnUse"><stop offset="0" stop-color="#28aeaf"/><stop offset="0.88" stop-color="#1984a0"/></linearGradient><linearGradient id="Degradado_sin_nombre_36" x1="971.43" y1="20.52" x2="1012.48" y2="20.52" gradientUnits="userSpaceOnUse"><stop offset="0.12" stop-color="#1985a1"/><stop offset="0.27" stop-color="#1d90a5"/><stop offset="0.64" stop-color="#25a7ad"/><stop offset="0.88" stop-color="#28afb0"/></linearGradient><linearGradient id="Degradado_sin_nombre_36-2" x1="937.92" y1="205.72" x2="1031.49" y2="205.72" xlink:href="#Degradado_sin_nombre_36"/><linearGradient id="Degradado_sin_nombre_36-3" x1="95.72" y1="798.42" x2="286.59" y2="798.42" xlink:href="#Degradado_sin_nombre_36"/></defs><g class="cls-1"><g id="Capa_2" data-name="Capa 2"><g id="Capa_1-2" data-name="Capa 1"><path class="cls-2" d="M982.4,277.92c.94,89.57-66.8,162.72-150.69,162.72H282.57c-49.6,0-89.8,42.92-89.8,95.88V877.31c0,71.76,54.35,130,121.56,130.25l517.32,1.94c81.29.3,147.06,70.69,147.15,157.48"/><rect class="cls-3" y="546.18" width="368" height="368"/><text class="cls-4" transform="translate(203.33 72.85)">8 <tspan class="cls-5" x="57.55" y="0">f</tspan><tspan class="cls-6" x="81.38" y="0">o</tspan><tspan class="cls-7" x="120.09" y="0">r</tspan><tspan x="146.46" y="0">m</tspan><tspan class="cls-8" x="206.51" y="0">a</tspan><tspan x="243.49" y="0">cio</tspan><tspan class="cls-8" x="336.99" y="0">n</tspan><tspan class="cls-9" x="377.98" y="0">es </tspan><tspan x="0" y="56">en di</tspan><tspan class="cls-10" x="156.91" y="56">r</tspan><tspan x="183.01" y="56">e</tspan><tspan class="cls-11" x="220.42" y="56">c</tspan><tspan class="cls-12" x="256.1" y="56">t</tspan><tspan x="281.98" y="56">o</tspan><tspan class="cls-13"><tspan x="0" y="117.92">(una por semana), de dos </tspan></tspan><tspan class="cls-14"><tspan x="0" y="164.85">h</tspan><tspan class="cls-15" x="24.39" y="164.85">o</tspan><tspan class="cls-16" x="47.18" y="164.85">r</tspan><tspan class="cls-15" x="62.32" y="164.85">as c</tspan><tspan class="cls-17" x="133.76" y="164.85">a</tspan><tspan class="cls-15" x="155.43" y="164.85">da una.</tspan></tspan></text><text class="cls-4" transform="translate(520.33 670.85)">Sesio<tspan class="cls-8" x="165.46" y="0">n</tspan><tspan x="206.45" y="0">es de </tspan><tspan class="cls-8" x="391.13" y="0">m</tspan><tspan x="451.5" y="0">en</tspan><tspan class="cls-18" x="529.58" y="0">t</tspan><tspan class="cls-6" x="555.46" y="0">o</tspan><tspan class="cls-7" x="594.17" y="0">r</tspan><tspan class="cls-9" x="620.54" y="0">ía </tspan><tspan x="0" y="60">gru</tspan><tspan class="cls-10" x="108.18" y="60">p</tspan><tspan x="148.3" y="60">al en di</tspan><tspan class="cls-10" x="379.98" y="60">r</tspan><tspan x="406.08" y="60">e</tspan><tspan class="cls-19" x="443.49" y="60">c</tspan><tspan class="cls-12" x="479.17" y="60">t</tspan><tspan x="505.05" y="60">o</tspan><tspan class="cls-20"><tspan x="0" y="121.92">p</tspan><tspan class="cls-21" x="24.16" y="121.92">a</tspan><tspan class="cls-22" x="45.73" y="121.92">r</tspan><tspan class="cls-21" x="60.88" y="121.92">a </tspan><tspan class="cls-23" x="93.24" y="121.92">e</tspan><tspan class="cls-24" x="114.94" y="121.92">v</tspan><tspan class="cls-15" x="134.68" y="121.92">aluar tus embudos de </tspan><tspan class="cls-25" x="548.75" y="121.92">v</tspan><tspan class="cls-15" x="568.55" y="121.92">entas </tspan></tspan><tspan class="cls-13"><tspan x="0" y="168.85">y da</tspan><tspan class="cls-26" x="76.98" y="168.85">r</tspan><tspan class="cls-27" x="92.88" y="168.85">t</tspan><tspan class="cls-15" x="107.83" y="168.85">e </tspan><tspan class="cls-16" x="140.65" y="168.85">f</tspan><tspan x="153.92" y="168.85">eed</tspan><tspan class="cls-28" x="222.31" y="168.85">b</tspan><tspan class="cls-17" x="246.48" y="168.85">a</tspan><tspan class="cls-29" x="268.15" y="168.85">c</tspan><tspan class="cls-30" x="288.6" y="168.85">k</tspan><tspan class="cls-15" x="311.09" y="168.85">.</tspan></tspan></text><text class="cls-31" transform="translate(62.33 1234.85)">A<tspan class="cls-32" x="44.45" y="0">cc</tspan><tspan class="cls-33" x="114.19" y="0">eso a la </tspan><tspan class="cls-32" x="370.89" y="0">c</tspan><tspan class="cls-33" x="405.75" y="0">omunid</tspan><tspan class="cls-8" x="645.88" y="0">a</tspan><tspan class="cls-9" x="682.86" y="0">d </tspan><tspan class="cls-34"><tspan x="0" y="60">e</tspan><tspan class="cls-18" x="36.6" y="60">x</tspan><tspan class="cls-7" x="71.14" y="60">c</tspan><tspan class="cls-33" x="106.18" y="60">lusi</tspan><tspan class="cls-35" x="217.71" y="60">v</tspan><tspan class="cls-33" x="252.36" y="60">a de Ninja</tspan></tspan><tspan class="cls-13"><tspan x="0" y="121.92">en Dis</tspan><tspan class="cls-16" x="115.66" y="121.92">c</tspan><tspan x="136.09" y="121.92">o</tspan><tspan class="cls-36" x="158.87" y="121.92">r</tspan><tspan class="cls-15" x="173.89" y="121.92">d </tspan><tspan class="cls-37" x="209" y="121.92">p</tspan><tspan x="233.16" y="121.92">a</tspan><tspan class="cls-22" x="254.74" y="121.92">r</tspan><tspan class="cls-15" x="269.88" y="121.92">a ge</tspan><tspan class="cls-38" x="348.86" y="121.92">n</tspan><tspan x="373.25" y="121.92">e</tspan><tspan class="cls-22" x="395.28" y="121.92">r</tspan><tspan x="410.43" y="121.92">ar si</tspan><tspan class="cls-38" x="487.7" y="121.92">n</tspan><tspan class="cls-15" x="512.09" y="121.92">e</tspan><tspan class="cls-39" x="534.13" y="121.92">r</tspan><tspan class="cls-15" x="549.14" y="121.92">gias </tspan></tspan><tspan class="cls-40"><tspan x="0" y="168.85">que </tspan><tspan class="cls-27" x="81.31" y="168.85">t</tspan><tspan class="cls-21" x="96.26" y="168.85">e impulsen.</tspan></tspan></text><path class="cls-41" d="M1041.75,1399a151.46,151.46,0,0,1-8-13.07,139.33,139.33,0,0,0,16.57-8.53l7-4.22-6.54-4.89c-1.67-1.25-3.35-2.58-5-4l-2.7-2.25-3.17,1.5A141.14,141.14,0,0,1,979,1377.5a143.66,143.66,0,0,1-61.21-13.94l-3.19-1.49-2.68,2.27c-1.63,1.37-3.3,2.69-5,3.93l-6.61,4.89,7,4.24a138.75,138.75,0,0,0,16.53,8.51,152.77,152.77,0,0,1-8.06,13.06,201.41,201.41,0,0,1-56-29c-4.14-49.72,7.52-94.85,35.61-137.83a197.81,197.81,0,0,1,45-14.48c1.69,3.27,3.36,6.81,4.58,9.73l1.65,4,4.26-.65a183.12,183.12,0,0,1,27.66-2.11,188.76,188.76,0,0,1,27.95,2.11l4.25.64,1.65-4c1.26-3,2.9-6.55,4.51-9.72a198.72,198.72,0,0,1,45,14.44c28.24,42.7,39.92,87.83,35.7,137.86A201.23,201.23,0,0,1,1041.75,1399Zm-21.31-112c-15.44,0-28,14-28,31.13s12.57,31.12,28,31.12,28-14,28-31.12a32.18,32.18,0,0,0-9-23A26.64,26.64,0,0,0,1020.44,1287Zm-83.21,0c-15.45,0-28,14-28,31.13s12.57,31.12,28,31.12a26.51,26.51,0,0,0,18.79-8,32.78,32.78,0,0,0,9.23-23.15,32.21,32.21,0,0,0-9-23A26.66,26.66,0,0,0,937.23,1287Z"/><path class="cls-42" d="M937.52,1224c1,2,1.84,3.92,2.54,5.6l3.31,8,8.51-1.3a177.44,177.44,0,0,1,26.83-2,183,183,0,0,1,27.13,2l8.5,1.28,3.3-7.93c.71-1.72,1.58-3.66,2.5-5.59a192.78,192.78,0,0,1,38.19,12.55,214.53,214.53,0,0,1,28,61.94,207.19,207.19,0,0,1,6.12,68.6,195.48,195.48,0,0,1-48.49,25.37q-1.28-2-2.5-4,6-2.89,11.64-6.31l14-8.43-13.07-9.79c-1.6-1.2-3.21-2.48-4.79-3.79l-5.4-4.5-6.35,3A135.86,135.86,0,0,1,979,1372a138.13,138.13,0,0,1-58.88-13.42l-6.37-3-5.38,4.54c-1.53,1.28-3.11,2.53-4.7,3.71l-13.21,9.79,14.09,8.48c3.77,2.26,7.64,4.36,11.59,6.27q-1.21,2-2.5,4a195.82,195.82,0,0,1-48.45-25.34,205.43,205.43,0,0,1,4.8-63.37c5.52-23.21,15.11-45.2,29.27-67.15A192,192,0,0,1,937.52,1224m82.92,130.81a32,32,0,0,0,24.27-11.3,38.38,38.38,0,0,0,9.25-25.23,37.74,37.74,0,0,0-10.55-26.91,31.74,31.74,0,0,0-47.24,1.5,38.43,38.43,0,0,0-9.24,25.32c0,20.19,15,36.62,33.51,36.62m-83.21,0a32,32,0,0,0,22.68-9.59,38.33,38.33,0,0,0,10.84-27,37.78,37.78,0,0,0-10.55-26.9,31.74,31.74,0,0,0-47.24,1.5,38.44,38.44,0,0,0-9.25,25.32c0,20.19,15,36.62,33.52,36.62m76.87-143.18a151.07,151.07,0,0,0-6.62,13.74,194.31,194.31,0,0,0-28.77-2.17,189.13,189.13,0,0,0-28.5,2.17,146.57,146.57,0,0,0-6.7-13.74,203.3,203.3,0,0,0-51.71,16.28c-32.7,49.42-41.57,97.61-37.13,145.11A206.62,206.62,0,0,0,918,1405.45a157.62,157.62,0,0,0,13.58-22.36,133.27,133.27,0,0,1-21.38-10.4c1.79-1.33,3.55-2.72,5.24-4.14A149.63,149.63,0,0,0,979,1383a147.16,147.16,0,0,0,63.17-14.45c1.72,1.42,3.47,2.81,5.24,4.14a132.4,132.4,0,0,1-21.41,10.42,156.84,156.84,0,0,0,13.57,22.36A206.15,206.15,0,0,0,1103,1373c5.2-55.07-8.89-102.82-37.24-145.15a203.85,203.85,0,0,0-51.67-16.24Zm6.34,132.18c-12.37,0-22.51-11.55-22.51-25.62s9.93-25.63,22.51-25.63,22.74,11.55,22.52,25.63c0,14.07-9.93,25.62-22.52,25.62Zm-83.21,0c-12.37,0-22.52-11.55-22.52-25.62s9.93-25.63,22.52-25.63,22.73,11.55,22.52,25.63c0,14.07-9.93,25.62-22.52,25.62Z"/><path class="cls-43" d="M1147.1,203.89c0,6.84-11.34,12.38-18.18,12.38H855c-6.84,0-16.74-5.54-16.74-12.38V17A12.39,12.39,0,0,1,850.64,4.58h284.08A12.38,12.38,0,0,1,1147.1,17Z"/><path class="cls-42" d="M1128.92,220.85H855c-8.49,0-21.31-6.76-21.31-17V17a17,17,0,0,1,17-17h284.08a17,17,0,0,1,17,17V203.89C1151.68,214.41,1137,220.85,1128.92,220.85ZM850.64,9.15A7.82,7.82,0,0,0,842.83,17V203.89c0,3.36,6.93,7.81,12.16,7.81h273.93c5.47,0,13.61-4.67,13.61-7.81V17a7.82,7.82,0,0,0-7.81-7.81Z"/><path class="cls-43" d="M810.71,193.08v9.2c0,13.52,11.63,25.6,27.18,25.6h309.39c15.55,0,28.83-12.08,28.83-25.6v-9.2Z"/><path class="cls-42" d="M1147.28,232.45H837.89c-17.51,0-31.76-13.53-31.76-30.17v-9.2a4.58,4.58,0,0,1,4.58-4.58h365.4a4.58,4.58,0,0,1,4.57,4.58v9.2C1180.68,218.35,1165.07,232.45,1147.28,232.45Zm-332-34.8v4.63c0,11.59,10.15,21,22.61,21h309.39c12.92,0,24.25-9.82,24.25-21v-4.63Z"/><path class="cls-44" d="M1154.63,197.67v4.77c0,12.84-11.89,21.33-28.31,21.33h18.2c16.43,0,27-8.49,27-21.33v-4.77Z"/><rect class="cls-41" x="862.91" y="36.48" width="261" height="156.6"/><path class="cls-42" d="M1128.48,197.65H858.33V31.9h270.15Zm-261-9.15h251.85V41.05H867.48Z"/><path class="cls-45" d="M1007.9,25.1H976A4.58,4.58,0,0,1,976,16h31.9a4.58,4.58,0,1,1,0,9.15Z"/><path class="cls-46" d="M1012.25,216h-55.1c-9.59,0-17.5-7.83-19.23-19L948,195.43c.95,6.13,4.73,10.41,9.18,10.41h55.1c4.47,0,8.25-4.24,9.19-10.3l10,1.55C1029.77,208.23,1021.86,216,1012.25,216Z"/><rect class="cls-3" x="918.62" y="72.62" width="130.99" height="92.18" rx="8.22"/><path class="cls-42" d="M1043.82,169.65H929.27a15.51,15.51,0,0,1-15.5-15.49V78.42a15.51,15.51,0,0,1,15.5-15.5h114.55a15.51,15.51,0,0,1,15.5,15.5v75.74A15.51,15.51,0,0,1,1043.82,169.65ZM929.27,77.47a1,1,0,0,0-.95,1v75.74a1,1,0,0,0,.95.94h114.55a1,1,0,0,0,.94-.94V78.42a1,1,0,0,0-.94-1Z"/><polygon class="cls-42" points="1007.65 113.25 971.99 132.24 971.99 94.26 1007.65 113.25"/><path class="cls-42" d="M1188,233H794.76a5.09,5.09,0,1,1,0-10.17H1188a5.09,5.09,0,1,1,0,10.17Z"/><path class="cls-47" d="M220.2,737.56l-58.14,1.38c-3.11,0-39.32,20.27-42.13,21.21-11.07,3.69-24.21,15.67-24.21,47v52.16H286.59V803.41c0-14.28-4.38-34-21.9-43.26C249.48,752.77,238.37,741.71,220.2,737.56Z"/><path class="cls-42" d="M288,862H97.11A4.15,4.15,0,0,1,93,857.89V807.11c0-36.64,16.51-47.62,26.35-50.89,1-.41,7.2-3.77,12.66-6.73,23.53-12.77,27.76-14.7,30.09-14.7l58-1.38a4.14,4.14,0,0,1,1,.11c12.52,2.85,22.1,8.77,31.38,14.5a167.41,167.41,0,0,0,14.69,8.4c23.14,12.18,24.93,39.05,24.93,47v54.48A4.15,4.15,0,0,1,288,862Zm-186.72-8.3H283.82V803.41c0-6.77-1.47-29.64-20.37-39.59a172,172,0,0,1-15.31-8.74c-9-5.53-17.44-10.77-28.37-13.36l-57.29,1.36c-3.09,1-18.3,9.23-26.55,13.71-9.34,5.06-12.72,6.87-14,7.3-7.72,2.57-20.68,11.58-20.68,43Z"/><g class="cls-48"><path class="cls-49" d="M283.82,853.74V803.41c0-12.51-5.38-34.26-19.81-39.34a151.66,151.66,0,0,0-25.37-14.52c11.07,10.6,34.12,30.89,34.12,53.86v50.33Z"/></g><polygon class="cls-3" points="191.72 847.93 230.39 751.18 189.77 743.09 151.5 752.77 191.72 847.93"/><path class="cls-41" d="M191.72,851.67a3.74,3.74,0,0,1-3.44-2.28l-40.21-95.16a3.73,3.73,0,0,1,2.52-5.08l38.27-9.68a3.78,3.78,0,0,1,1.64,0l40.62,8.08a3.73,3.73,0,0,1,2.74,5l-38.67,96.76a3.75,3.75,0,0,1-3.43,2.35Zm-35.08-96.34,35,82.78L225.26,754l-35.39-7Z"/><path class="cls-43" d="M247.86,696.07c0,26.71-26.27,49.79-53.57,49.79H188c-27.29,0-54-22.39-54-49.1l.46-41.15c0-26.71,26.28-48.06,53.57-48.06h6.27c27.3,0,53.57,18.93,53.57,45.64Z"/><path class="cls-43" d="M194.29,748.62H188c-31,0-58.18-24.56-58.18-52.55l.46-41.54c0-27.95,27-52.51,57.72-52.51h6.27c28,0,59.11,21,59.11,51.17v42.88C253.4,726.15,222.19,748.62,194.29,748.62Zm-56.15-52.51c0,23.12,23.78,44.22,49.88,44.22h6.27c24,0,50.81-18.93,50.81-44.26V653.19c0-25.27-26.78-42.88-50.81-42.88H188c-26.33,0-49.42,20.69-49.42,44.26"/><path class="cls-44" d="M246.1,654.53c0-18.52-11.72-34.41-28.29-41,12.26,9.65,21.72,13.1,13.42,29.62l-.69,52.56c2.07,19-6.23,31.81-18.33,40.11,18.33,1.38,33.89-21.2,33.89-39.72Z"/><path class="cls-42" d="M184.48,858.22a3.72,3.72,0,0,1-2.95-1.44l-35.87-46a3.72,3.72,0,0,1-.6-3.45l5.45-16.78-15.12-10.3a3.73,3.73,0,0,1-1.38-4.42l9.09-23.74a3.74,3.74,0,1,1,7,2.67l-8,21L157,786a3.72,3.72,0,0,1,1.44,4.24l-5.7,17.56,34.65,44.41a3.74,3.74,0,0,1-2.94,6Z"/><path class="cls-42" d="M198.11,858.22a3.74,3.74,0,0,1-2.9-6.08l34.2-42.51-4.61-18.92a3.71,3.71,0,0,1,1.37-3.86l14.44-10.94-8.09-21.12a3.73,3.73,0,1,1,7-2.67l9.09,23.74a3.71,3.71,0,0,1-1.23,4.31l-14.72,11.15,4.47,18.33a3.75,3.75,0,0,1-.71,3.23l-35.37,44A3.73,3.73,0,0,1,198.11,858.22Z"/><path class="cls-41" d="M165.34,782.79a3.74,3.74,0,0,1-2.25-6.72l26.27-19.82a3.72,3.72,0,0,1,4.58.06l24.9,19.82a3.73,3.73,0,0,1-4.65,5.84l-22.64-18-24,18.08A3.74,3.74,0,0,1,165.34,782.79Z"/><polygon class="cls-42" points="176.4 771.67 182.86 787.35 199.91 785.97 204.06 772.6 191.62 759.23 176.4 771.67"/><path class="cls-41" d="M182.85,791.08a3.71,3.71,0,0,1-3.44-2.31L173,773.1a3.74,3.74,0,0,1,1.09-4.32l15.21-12.44a3.74,3.74,0,0,1,5.1.34l12.45,13.37a3.75,3.75,0,0,1,.83,3.66l-4.15,13.37a3.74,3.74,0,0,1-3.26,2.61l-17.06,1.38Zm-1.94-18.27,4.36,10.6,11.83-1,2.75-8.89-8.58-9.22Z"/><polygon class="cls-42" points="183.32 787.35 175.02 809.71 191.62 853.16 208.21 808.04 200.38 787.35 183.32 787.35"/><path class="cls-41" d="M191.62,856.51a4,4,0,0,1-3.88-2.45l-16.6-43.69a4,4,0,0,1,0-2.81l8.3-23a4.13,4.13,0,0,1,3.91-2.71h17.06a4.14,4.14,0,0,1,3.89,2.71l7.83,21.21a4.05,4.05,0,0,1,0,2.85L195.52,854a3.94,3.94,0,0,1-3.88,2.51ZM179.44,809l12.09,31.92,12.26-33.71-6.3-17.07H186.23Z"/><path class="cls-42" d="M193.18,724.61c-1.58,0-3-.09-4.26-.21l-4-.38.29-4c.15-2.27.21-6.14.15-11.09-.54-.17-1-.36-1.52-.54a19.85,19.85,0,0,0-2-.66l-3.12-.8V679.47a4.15,4.15,0,1,1,8.3,0v21.22a4.58,4.58,0,0,0,2.25.45l4.23-.17.09,4.24c.06,3.36.11,7.55,0,11.09,4.24-.06,7.6-1,8.87-2.49a4.15,4.15,0,0,1,6.38,5.31C205.15,723.59,198.49,724.61,193.18,724.61Z"/><rect class="cls-43" x="145.51" y="668.4" width="35.96" height="27.66" rx="9"/><path class="cls-42" d="M173.86,698.83h-18a13.17,13.17,0,0,1-13.15-13.15V676a13.17,13.17,0,0,1,13.15-13.15h18A13.17,13.17,0,0,1,187,676v9.66A13.17,13.17,0,0,1,173.86,698.83Zm-18-27.66a4.85,4.85,0,0,0-4.85,4.85v9.66a4.85,4.85,0,0,0,4.85,4.85h18a4.85,4.85,0,0,0,4.85-4.85V676a4.86,4.86,0,0,0-4.85-4.85Z"/><rect class="cls-43" x="198.07" y="668.4" width="35.96" height="27.66" rx="9"/><path class="cls-42" d="M226.41,698.83H208.46a13.17,13.17,0,0,1-13.15-13.15V676a13.17,13.17,0,0,1,13.15-13.15h17.95A13.17,13.17,0,0,1,239.56,676v9.66A13.17,13.17,0,0,1,226.41,698.83Zm-17.95-27.66A4.86,4.86,0,0,0,203.6,676v9.66a4.86,4.86,0,0,0,4.86,4.85h17.95a4.86,4.86,0,0,0,4.86-4.85V676a4.86,4.86,0,0,0-4.86-4.85Z"/><path class="cls-42" d="M167.64,685h-8.3a4.15,4.15,0,0,1,0-8.3h8.3a4.15,4.15,0,1,1,0,8.3Z"/><path class="cls-42" d="M220.2,685h-8.3a4.15,4.15,0,0,1,0-8.3h8.3a4.15,4.15,0,1,1,0,8.3Z"/><path class="cls-42" d="M209.14,671.17H178.71a4.15,4.15,0,0,1,0-8.3h30.43a4.15,4.15,0,1,1,0,8.3Z"/><path class="cls-43" d="M251.09,657.34s0-17-.46-22.36c-2-21.27-14.52-38.5-34.58-38.84-6.57-5.19-15.21-10.38-30.77-10-12.41.28-24.55,2.08-35.62,10.37a39.08,39.08,0,0,0-12.9,16.14c-3.19,7.17-4.67,15.48-5.08,23.63-.34,6.91-.59,23.64-.34,28.7,0,26.62-2.77,66.39,12.44,84,15,17.34,46.92,19.71,46.92,19.71,6.43-.36,32.05-3,48.86-20.4C253.85,733.53,252,691.46,251.09,657.34Zm-28.12,66c-5.19-6.57-8-13.83-32.27-14.4-19.6-.47-27.9,5.07-33.43,14.06-5.19-.35-22.44-18.52-24.2-31.47-2.51-18.39,15.16-40.53,15.67-42.07,29,0,43.8-9.68,58.55-30.42,5.07,13.36,9.91,23.1,26.28,32.73,3.92,2.3,14.91,3.27,15.22,3.68.32,8.44.52,27.26-.93,37.81C246.22,705.27,235.42,719.58,223,723.38Z"/><path class="cls-42" d="M190.7,772.41h-.28c-1.37-.1-33.67-2.69-49.46-21-14.19-16.45-13.78-49.3-13.45-75.7,0-3.76.09-7.37.09-10.76-.25-5,0-21.82.35-28.89.48-9.6,2.3-18,5.39-25a43.12,43.12,0,0,1,14.08-17.6c12.45-9.34,26.08-10.86,37.77-11.12,16-.34,25.28,4.78,32.2,10.07,19.85,1,34.64,17.79,37,42.18.52,5.45.47,22,.47,22.72l.13,4.36c1,34.65,2.06,73.92-12.7,89.17-18.2,18.78-46,21.23-51.35,21.53Zm-55.38-65.93c1,16.18,3.74,31.3,11.29,40,13.16,15.25,41.31,18.15,44.14,18.41,5.46-.34,30.14-2.75,46.13-19.26,6.94-7.16,9.71-22.3,10.66-39.73-5.08,9.74-14.06,18.12-23.48,21a3.74,3.74,0,0,1-4-1.25c-.54-.69-1-1.37-1.57-2.06-4.18-5.61-7.79-10.46-27.86-10.93l-2.15,0c-17,0-23.46,4.92-28,12.32a3.75,3.75,0,0,1-3.43,1.76C151.64,726.41,141.74,716.79,135.32,706.48Zm53.14-1.26c.76,0,1.53,0,2.33,0,23.39.55,28.85,7.48,33.48,13.68,10.34-4.5,18.62-16.86,19.89-26.13,1.2-8.72,1.26-24.19,1-34.21-5.18-.82-10.46-1.78-13.47-3.55-14.75-8.68-20.83-17.81-25.38-28.39-12.73,16.16-27.55,26.11-55.48,26.58l-.36.54c-3.86,5.75-15.61,23.23-13.69,37.31,1.39,10.27,13.72,23.74,19.11,27.36C162.69,709.2,172.65,705.22,188.46,705.22Zm-1.72-115.39h-1.38c-11,.25-22.73,1.58-33.46,9.63a35.47,35.47,0,0,0-11.73,14.66c-2.72,6.13-4.32,13.63-4.76,22.3-.33,6.77-.58,23.43-.34,28.33v.47a123.06,123.06,0,0,1,9.19-15.63c.51-.76.88-1.31,1.07-1.63a3.74,3.74,0,0,1,3.41-2.2c29.26,0,42.51-10.58,55.51-28.86a3.7,3.7,0,0,1,3.52-1.54,3.74,3.74,0,0,1,3,2.38c4.81,12.69,9.13,21.7,24.68,30.84,2.06,1.22,8.07,2.17,11,2.63l.91.15c0-5.4-.13-12.91-.43-16-2-21.25-14.16-35.17-30.92-35.46a3.68,3.68,0,0,1-2.25-.8C207.66,594.27,200.18,589.83,186.74,589.83Z"/><path class="cls-42" d="M183.92,627.7a3.74,3.74,0,0,1-1.72-7.05c5.14-2.67,9.87-7.13,11.79-11.09a3.73,3.73,0,1,1,6.72,3.25c-3.15,6.53-9.85,11.75-15.06,14.46A3.72,3.72,0,0,1,183.92,627.7Z"/><path class="cls-42" d="M152,652.9a93.21,93.21,0,0,1-10.13-.61,3.74,3.74,0,0,1,.93-7.42,76.4,76.4,0,0,0,12.62.45,3.73,3.73,0,1,1,.57,7.44C154.64,652.86,153.29,652.9,152,652.9Z"/><rect class="cls-42" x="128.92" y="662.87" width="122.08" height="8.3"/><rect class="cls-42" x="228.5" y="662.87" width="22.13" height="8.3"/><path class="cls-50" d="M133.53,682.7c0,6.11,0,9.22-1.85,12.45-4.52.75-10.07-6.83-10.6-12.91-.69-8,3.26-11.53,7.84-11.53S133.53,676.59,133.53,682.7Z"/><path class="cls-42" d="M131.05,694.93c-6.8,0-13.05-8.95-13.69-16.37-.56-6.38,1.48-10.07,3.29-12a11.05,11.05,0,0,1,8.27-3.53c8.34,0,8.34,9.46,8.34,15.72s0,10.21-2.34,14.3h0a3.72,3.72,0,0,1-2.62,1.83h0A7.53,7.53,0,0,1,131.05,694.93Zm-2.12-24.57a4,4,0,0,0-2.77,1.2c-1.13,1.23-1.61,3.48-1.36,6.35a14.51,14.51,0,0,0,4.62,8.71,45,45,0,0,0,.37-7.92C129.79,676.11,129.79,671.3,128.93,670.36Z"/><path class="cls-51" d="M248.25,679.93c0,6.11,0,9.22,1.84,12.45,4.52.75,10.08-6.82,10.6-12.91.7-8-3.25-11.53-7.83-11.53S248.25,673.82,248.25,679.93Z"/><path class="cls-42" d="M250.73,694.17h0a7.45,7.45,0,0,1-1.25-.11l-1.75-.29-.89-1.54c-2.33-4.09-2.33-7.93-2.33-14.3s0-15.72,8.35-15.72a11.05,11.05,0,0,1,8.26,3.54c1.81,2,3.85,5.66,3.29,12C263.77,685.21,257.52,694.17,250.73,694.17Zm2.13-24.49c-.88.85-.88,5.67-.88,8.25a46,46,0,0,0,.37,7.92,14.4,14.4,0,0,0,4.62-8.7c.25-2.87-.23-5.13-1.35-6.35A3.55,3.55,0,0,0,252.86,669.68Z"/><path class="cls-42" d="M171.1,733a3.73,3.73,0,0,1,0-7.46c.25,0,10.49-.21,15.68-7.24a3.73,3.73,0,1,1,6,4.43C185.29,732.88,171.68,733,171.1,733Z"/><path class="cls-42" d="M208.79,733.34c-14.2,0-21.38-7.15-21.68-7.46a3.73,3.73,0,0,1,5.3-5.25c.27.26,5.54,5.24,16.38,5.24a3.74,3.74,0,0,1,0,7.47Z"/><polygon class="cls-50" points="249.25 845.44 224.35 845.44 240.49 830.23 249.25 845.44"/><path class="cls-42" d="M249.25,848.21h-24.9A4.15,4.15,0,0,1,221.5,841l16.14-15.22a4.15,4.15,0,0,1,6.44,1L252.84,842a4.15,4.15,0,0,1-3.59,6.22Zm-14.45-8.3h7.27l-2.56-4.44Z"/><path class="cls-42" d="M191.16,758.31a4.15,4.15,0,0,1-4.15-4.15v-8.3a4.15,4.15,0,0,1,8.3,0v8.3A4.15,4.15,0,0,1,191.16,758.31Z"/><path class="cls-42" d="M207.75,755.54a4.15,4.15,0,0,1-4.15-4.15v-2.77a4.15,4.15,0,0,1,8.3,0v2.77A4.15,4.15,0,0,1,207.75,755.54Z"/><path class="cls-42" d="M177.32,755.54a4.14,4.14,0,0,1-4.14-4.15v-2.77a4.15,4.15,0,0,1,8.29,0v2.77A4.15,4.15,0,0,1,177.32,755.54Z"/></g></g></g></svg>