<svg xmlns="http://www.w3.org/2000/svg" xmlns:xlink="http://www.w3.org/1999/xlink" viewBox="0 0 272.66 255.21"><defs><style>.cls-1{fill:#a0aab7;}.cls-2{fill:url(#Degradado_sin_nombre_28);}.cls-3{fill:#4b6272;}.cls-4{font-size:33.01px;font-family:Montserrat-Bold, Montserrat;font-weight:700;}.cls-4,.cls-6{fill:#fff;}.cls-5{letter-spacing:-0.01em;}</style><linearGradient id="Degradado_sin_nombre_28" y1="175.16" x2="272.66" y2="175.16" gradientUnits="userSpaceOnUse"><stop offset="0.12" stop-color="#fff" stop-opacity="0"/><stop offset="0.14" stop-color="#f9fdfd" stop-opacity="0.01"/><stop offset="0.46" stop-color="#88d3d3" stop-opacity="0.22"/><stop offset="0.71" stop-color="#42b9b9" stop-opacity="0.35"/><stop offset="0.88" stop-color="#28afb0" stop-opacity="0.4"/></linearGradient></defs><g id="Capa_2" data-name="Capa 2"><g id="Capa_1-2" data-name="Capa 1"><circle class="cls-1" cx="121.64" cy="117.78" r="109.71" transform="translate(-47.66 120.51) rotate(-45)"/><path class="cls-2" d="M272.38,122,257.46,96.13a2,2,0,0,0-3.52,0L239,122a2,2,0,0,0,1.76,3h8.16c-5.43,65.73-60.64,117.55-127.74,117.55A127.42,127.42,0,0,1,11.72,181.11,6.32,6.32,0,0,0,.93,187.69a140,140,0,0,0,120.26,67.52c74.07,0,135-57.49,140.43-130.19h9A2,2,0,0,0,272.38,122Z"/><path class="cls-3" d="M139.43,197.75A109.69,109.69,0,0,1,37.56,47.34a109.7,109.7,0,1,0,186,111.15A109.42,109.42,0,0,1,139.43,197.75Z"/><circle class="cls-1" cx="55.05" cy="30.59" r="30.59" transform="translate(13.48 77.89) rotate(-77.75)"/><text class="cls-4" transform="translate(32.94 41.37)"><tspan class="cls-5">0</tspan><tspan x="22.22" y="0">2</tspan></text><path class="cls-6" d="M156.28,115.1H156a2.47,2.47,0,0,1-2.13-2.77c0-.26,3.12-25.47-9.44-40.28-5.76-6.8-14-10.43-24.61-10.81-10.87-.39-19.42,2.5-25.41,8.58-10.75,10.91-10,28.71-10,28.89a2.47,2.47,0,0,1-4.94.26c0-.81-.92-20.1,11.35-32.59,7-7.13,16.81-10.53,29.14-10.08,12,.43,21.52,4.66,28.21,12.57,14,16.5,10.71,43,10.56,44.09A2.45,2.45,0,0,1,156.28,115.1Z"/><path class="cls-6" d="M155.1,124.39a8.57,8.57,0,0,1-4.92-1.82c-3.87-3-6-9.12-6.19-18.27-.55-20.77-8.78-32.57-23.79-34.1-5.36-.56-13.56.51-19,5.28-3.86,3.36-5.92,8.14-6.14,14.23-.31,8.51-2.47,14.39-6.42,17.47a9.89,9.89,0,0,1-7.78,2.09,2.48,2.48,0,0,1,1-4.85,5,5,0,0,0,3.84-1.21c1.85-1.49,4.12-5.08,4.43-13.67C90.36,82,93,76,97.92,71.75,104.58,66,114,64.6,120.7,65.28c10.18,1,27.4,7.48,28.23,38.89.26,10,2.78,13.34,4.26,14.47a3.43,3.43,0,0,0,2.44.81,2.47,2.47,0,0,1,1.15,4.81A7.05,7.05,0,0,1,155.1,124.39Z"/><path class="cls-6" d="M155.79,133.25a1.81,1.81,0,0,1-.4,0c-16.76-3.42-23-13.85-22.92-38.51a14,14,0,0,0-7.09-12.56,14.72,14.72,0,0,0-14.54-.27c-4.51,2.64-7,7.95-6.9,15,.09,9.13-2.35,15.59-7.25,19.22-7,5.13-16,2.33-16.42,2.21a2.47,2.47,0,1,1,1.49-4.71c.14,0,7.14,2.13,12-1.5,3.53-2.63,5.29-7.74,5.22-15.18-.08-8.85,3.23-15.7,9.34-19.27a19.77,19.77,0,0,1,19.51.25,18.88,18.88,0,0,1,9.57,16.85c0,25,6.62,31.15,19,33.66a2.47,2.47,0,0,1-.59,4.89Z"/><path class="cls-6" d="M82.83,145.25A2.48,2.48,0,0,1,83,140.3c.27,0,27,.7,36.33-17.87,8.24-19.88,5.09-28.29,3.35-31-1.1-1.7-2.29-2.18-2.82-2.2h0l-.85,0c-2.81-.15-5.46-.27-6.59,12.89-.22,11.17-5.63,24.83-30.09,25.55l-.76,0a2.48,2.48,0,0,1-2.67-.61,2.54,2.54,0,0,1-.51-2.68c.65-1.58,2-1.62,3.79-1.67,16.75-.49,25-7.32,25.31-20.87,1.28-15.14,5.27-17.77,11.76-17.57l.74,0H120c2.5.09,5,1.75,6.79,4.45,2.69,4.15,5.88,14.3-3,35.72C113,146.08,84.05,145.29,82.83,145.25Z"/><path class="cls-6" d="M87.06,136.26a31.15,31.15,0,0,1-5.16-.57A2.47,2.47,0,0,1,83,130.86c.18,0,12.68,2.62,22.27-4.88,7.29-5.69,11.2-15.71,11.64-29.8a2.47,2.47,0,0,1,2.54-2.39h0a2.48,2.48,0,0,1,2.39,2.55c-.49,15.65-5.06,27-13.59,33.58C100.87,135.64,92.37,136.45,87.06,136.26Z"/><path class="cls-6" d="M151.81,142h-.2c-22.42-2.61-23-20.66-23-20.84a2.48,2.48,0,0,1,2.43-2.52,2.52,2.52,0,0,1,2.52,2.43c0,.58.59,13.92,18.59,16a2.47,2.47,0,0,1-.37,4.93Z"/><path class="cls-6" d="M89.09,153.12a16.92,16.92,0,0,1-3.37-.41A2.47,2.47,0,0,1,87,147.93c.15,0,7.16,1.64,18.24-3.66,4.14-2,7.33-3.75,9.89-5.18,6.71-3.73,10.41-5.78,16.52-2.57,3.76,2,6.72,3.81,9.33,5.42,5.31,3.29,8.83,5.46,14.42,5.91a2.47,2.47,0,0,1-.4,4.93c-6.78-.55-11.13-3.23-16.62-6.63-2.54-1.57-5.42-3.35-9-5.25s-5.16-1.18-11.81,2.51c-2.63,1.46-5.89,3.28-10.17,5.32C99.1,152.68,92.72,153.25,89.09,153.12Z"/><path class="cls-6" d="M91.63,161.57a26.08,26.08,0,0,1-6.28-.9,2.47,2.47,0,0,1,1.44-4.73,28,28,0,0,0,21.81-4c12.06-7.69,17.48-9.61,21.45-7.57.85.43,2.26,1.34,4.22,2.59,4.7,3,14.47,9.28,18.46,9.43a2.47,2.47,0,0,1-.18,4.94c-4.92-.18-13.05-5.14-20.94-10.2-1.71-1.09-3.17-2-3.81-2.36-2.79-1.42-12.78,4.94-16.54,7.34A34,34,0,0,1,91.63,161.57Z"/><path class="cls-6" d="M91.85,169.36a22.34,22.34,0,0,1-4.19-.49,2.48,2.48,0,0,1,1.17-4.81h0c.09,0,9.26,2.09,20.34-4,8.36-4.59,14.17-7,16.39-6.66l.56.08.47.31c.15.1,15.45,10.15,26,11.3a2.47,2.47,0,1,1-.53,4.91c-10.43-1.13-24-9.42-27.42-11.58-1.24.28-4.83,1.43-13.09,6A38.18,38.18,0,0,1,91.85,169.36Z"/></g></g></svg>